<svg version="1.0" xmlns="http://www.w3.org/2000/svg"
 width="300.000000pt" height="390.000000pt" viewBox="0 0 300.000000 390.000000"
 preserveAspectRatio="xMidYMid meet">
<metadata>
Created by potrace 1.10, written by Peter Selinger 2001-2011
</metadata>
<g transform="translate(0.000000,390.000000) scale(0.100000,-0.100000)"
fill="#000000" stroke="none">
<path d="M1548 3695 c-2 -2 -42 -12 -88 -21 -47 -9 -98 -24 -115 -32 -43 -22
-179 -104 -185 -112 -3 -4 -18 -10 -34 -14 -17 -4 -45 -23 -63 -43 -19 -19
-37 -33 -40 -29 -11 11 -32 -29 -33 -62 0 -23 -4 -31 -12 -26 -6 4 -8 3 -4 -4
3 -6 -5 -27 -19 -48 -14 -20 -25 -42 -25 -49 0 -7 -22 -29 -48 -48 -38 -27
-59 -35 -93 -35 -98 -1 -99 -1 -112 -29 -16 -37 -26 -43 -54 -32 -14 5 -100 9
-192 9 l-167 0 6 -59 c8 -87 26 -95 20 -10 -1 28 15 46 44 45 17 -1 18 -21 18
-490 0 -295 4 -501 10 -518 10 -27 149 -163 205 -199 32 -21 81 -98 88 -139 5
-29 4 -30 -29 -30 -19 0 -47 5 -61 10 -25 9 -26 13 -20 51 7 40 6 42 -46 91
-30 27 -67 56 -83 65 -26 13 -30 13 -45 -1 -14 -15 -16 -50 -16 -276 l0 -260
29 -25 c16 -14 33 -25 38 -25 5 0 7 -4 4 -9 -4 -5 -2 -11 4 -13 5 -1 11 -13
13 -25 2 -13 12 -33 23 -45 25 -30 46 -78 34 -78 -6 0 -10 4 -10 8 0 19 -50
10 -67 -11 -16 -21 -21 -22 -48 -11 -40 16 -60 4 -86 -51 -12 -25 -27 -45 -34
-45 -8 0 -15 -10 -17 -22 -2 -13 -9 -22 -16 -20 -8 1 -11 -2 -8 -7 3 -5 -1
-11 -9 -15 -8 -3 -15 -16 -15 -30 0 -13 -18 -45 -41 -72 l-40 -49 2 -135 c2
-74 6 -140 10 -145 8 -11 7 -29 -6 -58 -13 -30 15 -76 75 -123 l58 -45 -4 -63
c-2 -49 1 -69 17 -95 11 -18 23 -31 26 -27 3 3 12 -3 20 -13 10 -15 11 -25 2
-44 -9 -20 -7 -32 10 -66 12 -22 26 -41 32 -41 6 0 9 3 7 7 -2 5 -13 25 -23
45 -15 30 -16 39 -6 52 11 13 19 11 63 -19 53 -37 71 -43 62 -22 -2 6 -21 20
-42 30 -20 10 -66 44 -102 77 -52 48 -62 62 -50 70 12 7 13 15 3 39 -12 32 -8
41 15 41 9 0 12 -6 8 -16 -4 -12 10 -34 46 -70 57 -58 81 -71 49 -26 -11 16
-21 35 -23 43 -2 8 -10 19 -18 26 -8 7 -10 13 -4 13 6 0 21 -12 35 -26 22 -23
56 -43 101 -58 33 -10 18 4 -20 19 -20 9 -48 27 -62 40 -14 13 -59 46 -100 73
-103 66 -160 122 -160 155 0 14 5 29 11 33 6 4 8 17 3 33 -10 39 -17 156 -12
214 1 12 -1 32 -5 43 -6 17 1 32 33 69 22 25 40 55 40 66 0 29 18 59 35 59 8
0 15 8 15 19 0 10 11 26 24 34 13 9 26 30 29 46 7 34 44 58 72 48 8 -4 24 -22
35 -40 15 -26 42 -44 119 -81 67 -32 106 -46 120 -41 35 11 61 -14 97 -93 19
-42 42 -84 51 -94 15 -17 14 -18 -15 -18 -17 0 -37 -3 -46 -6 -10 -4 -29 13
-58 52 -60 79 -110 135 -116 130 -2 -3 -13 -1 -24 5 -15 8 -17 13 -7 25 16 20
4 18 -16 -3 -16 -16 -18 -16 -27 0 -5 9 -17 17 -27 17 -10 0 -30 9 -44 20 -14
11 -30 20 -36 20 -19 0 -12 22 9 27 27 7 25 17 -6 42 -31 25 -53 17 -61 -20
-3 -15 -16 -35 -29 -44 -13 -8 -24 -25 -24 -36 0 -11 -4 -18 -9 -15 -13 8 -38
-25 -45 -60 -4 -17 -20 -44 -36 -59 -19 -18 -30 -39 -30 -56 l0 -28 23 22 c29
27 57 83 57 113 0 24 37 57 53 47 5 -3 -3 -15 -19 -28 -19 -15 -25 -27 -20
-40 4 -11 0 -25 -9 -34 -19 -22 -24 -65 -7 -66 6 0 12 -3 12 -7 0 -5 0 -11 0
-15 0 -3 -9 2 -19 11 -23 21 -36 15 -57 -26 -15 -30 -22 -94 -11 -105 3 -3 13
12 21 32 13 31 14 41 4 54 -11 14 -11 14 4 3 11 -9 18 -10 23 -2 4 6 14 10 23
8 10 -1 22 0 27 3 19 11 101 -3 124 -20 19 -14 21 -21 12 -42 -5 -13 -12 -32
-15 -43 -5 -15 -9 -16 -21 -6 -8 7 -12 17 -8 23 4 6 0 8 -10 4 -9 -3 -31 5
-52 19 -47 31 -58 30 -20 -2 18 -16 23 -24 12 -20 -10 3 -24 6 -32 6 -17 0
-26 35 -12 49 8 8 8 11 -1 11 -6 0 -19 -15 -28 -32 -9 -18 -23 -40 -31 -49 -7
-9 -16 -29 -19 -45 l-5 -29 28 34 c26 30 31 33 52 22 21 -11 22 -11 12 7 -9
17 -7 18 34 12 51 -8 75 -24 75 -53 0 -20 0 -20 -22 -1 l-21 19 15 -25 c8 -14
14 -32 13 -40 -1 -8 -3 -23 -3 -34 -2 -15 -7 -17 -34 -12 -18 3 -44 8 -57 10
-13 3 -27 10 -31 16 -9 14 -60 -44 -60 -69 0 -20 57 -69 155 -135 39 -25 88
-59 110 -75 22 -16 51 -31 65 -35 23 -6 23 -6 -4 9 -22 13 -27 22 -23 42 4 20
-4 34 -34 64 -22 22 -46 39 -54 39 -8 0 -24 14 -37 30 -15 21 -25 27 -32 19
-8 -7 -6 -13 7 -20 10 -6 33 -24 51 -40 18 -16 35 -26 38 -24 10 11 49 -44 46
-66 -3 -19 -14 -11 -93 65 -49 48 -102 94 -118 102 -27 14 -37 47 -17 59 13 8
82 -22 99 -43 13 -16 13 -16 8 0 -5 15 1 13 36 -8 72 -45 127 -104 128 -139
l1 -30 9 30 c8 28 5 34 -45 82 -44 43 -51 55 -40 64 8 6 14 17 13 23 0 6 -7 1
-15 -11 -15 -21 -17 -22 -42 -6 -15 9 -28 18 -30 19 -8 5 11 54 21 54 6 0 22
-10 36 -22 14 -13 10 -6 -8 15 -47 50 -29 47 29 -5 26 -24 63 -57 83 -74 40
-34 46 -54 21 -78 -8 -9 -11 -16 -6 -16 6 0 9 -26 7 -62 l-4 -63 9 60 c5 33
16 80 24 104 19 52 19 54 5 45 -27 -16 3 52 33 76 57 45 84 77 96 116 6 21 9
40 7 42 -3 3 -7 -4 -10 -14 -14 -44 -45 -104 -55 -104 -5 0 -6 8 -2 18 18 43
56 109 75 129 11 13 18 26 14 29 -12 12 -32 -14 -62 -76 -16 -33 -35 -60 -42
-60 -8 0 -11 5 -8 10 3 6 1 10 -4 10 -14 0 -14 -6 1 -30 11 -17 9 -24 -15 -47
l-27 -27 -45 44 c-25 24 -45 47 -45 50 0 3 6 15 14 26 14 19 15 19 38 -2 13
-12 30 -24 38 -28 8 -4 -1 7 -20 24 -19 17 -34 38 -32 46 2 9 -1 13 -6 10 -5
-3 -15 0 -21 7 -8 10 -7 19 4 33 13 18 16 16 69 -36 31 -30 56 -50 56 -45 0 5
-23 33 -52 62 -51 52 -51 52 -34 78 15 23 20 24 33 13 9 -7 22 -28 30 -45 14
-36 28 -45 20 -14 -4 15 -1 18 12 13 9 -3 -6 15 -33 39 l-50 45 23 23 c12 12
21 24 19 25 -1 1 -12 8 -23 16 -19 14 -19 14 -6 -3 23 -30 6 -29 -24 2 -29 28
-29 28 -45 8 -15 -18 -21 -19 -50 -9 -18 7 -45 12 -59 11 -20 0 -14 -5 24 -18
28 -10 49 -21 48 -24 -2 -4 -3 -12 -3 -18 0 -6 -9 -9 -20 -6 -18 5 -18 4 1
-23 20 -26 20 -29 4 -54 -10 -15 -22 -23 -29 -19 -6 4 -26 17 -44 29 -17 12
-40 20 -50 18 -24 -6 -67 29 -59 50 8 20 49 21 88 0 44 -22 59 -12 18 14 -55
34 -74 59 -59 77 9 11 25 14 69 9 53 -5 55 -4 36 11 -11 9 -29 14 -39 11 -29
-8 -50 12 -34 32 11 13 10 14 -10 8 -32 -11 -28 12 6 25 19 7 32 7 44 0 10 -6
24 -8 32 -5 8 3 17 1 21 -5 4 -7 -1 -8 -12 -4 -16 6 -16 5 -5 -9 7 -9 27 -20
43 -23 16 -4 36 -16 44 -28 15 -21 17 -21 26 -4 8 14 14 16 25 6 7 -6 12 -15
9 -19 -3 -4 3 -14 12 -21 12 -10 14 -10 9 -1 -4 6 -4 16 -1 22 3 5 24 -11 46
-38 22 -26 55 -66 75 -89 l35 -42 -26 -7 c-14 -3 -25 -10 -25 -15 0 -5 11 -4
25 1 17 7 25 6 25 -1 0 -7 10 -5 25 5 27 18 100 23 90 6 -4 -6 -11 -7 -17 -4
-6 4 -8 3 -5 -3 3 -5 -14 -26 -38 -46 -24 -20 -45 -33 -48 -29 -2 4 -2 1 0 -7
2 -8 0 -17 -5 -20 -4 -3 -21 -28 -36 -54 -15 -27 -43 -58 -62 -69 -19 -11 -39
-28 -44 -38 -13 -25 -12 -40 1 -17 6 10 28 29 49 42 22 14 57 51 78 82 22 32
70 87 107 123 l68 64 20 -24 c11 -14 17 -18 13 -10 -3 8 -9 22 -12 32 -5 12
-12 14 -34 8 -23 -7 -32 -4 -52 18 -33 38 -37 55 -19 70 14 11 14 12 0 7 -25
-9 -41 19 -41 72 0 31 -3 41 -7 29 -7 -19 -8 -18 -23 3 -11 15 -17 18 -20 9
-3 -7 -17 5 -36 31 -18 24 -32 40 -32 35 0 -6 5 -15 12 -22 6 -6 9 -15 5 -18
-3 -4 -14 8 -24 26 -10 18 -39 60 -64 94 -25 34 -58 82 -73 109 -26 44 -27 49
-13 71 9 13 23 52 32 87 21 86 23 91 33 85 9 -5 -17 -126 -38 -177 -10 -24 -8
-34 15 -78 31 -56 95 -135 74 -91 -6 14 -17 31 -23 39 -6 8 -11 24 -12 35 -1
12 -7 48 -14 82 -14 66 -6 120 11 75 5 -13 16 -55 25 -93 9 -38 18 -68 20 -65
2 2 -5 46 -17 98 -11 52 -23 108 -25 124 l-5 30 17 -30 c18 -31 31 -78 42
-155 9 -61 32 -98 83 -140 38 -30 42 -31 28 -10 -9 14 -19 42 -23 62 -5 30 -3
40 15 57 28 26 32 23 17 -16 -9 -24 -9 -38 2 -62 7 -18 16 -29 19 -24 13 17
42 13 81 -13 22 -15 40 -31 40 -36 0 -6 6 -8 14 -5 8 3 17 1 20 -6 3 -9 5 -8
5 1 1 7 -10 28 -24 47 -26 34 -38 89 -20 90 26 2 52 17 52 30 0 12 -3 12 -15
2 -12 -9 -11 -5 2 21 9 18 22 32 28 30 35 -12 82 -128 52 -128 -8 0 -14 5 -14
10 0 6 -9 10 -20 10 -12 0 -20 7 -20 18 0 14 -2 14 -9 3 -5 -8 -16 -11 -25 -8
-12 5 -16 0 -16 -18 0 -13 5 -27 10 -30 6 -4 22 -25 36 -47 20 -31 23 -42 13
-54 -9 -11 -9 -17 1 -29 10 -12 8 -16 -11 -24 -13 -5 -19 -10 -13 -10 8 -1 11
-44 11 -141 l-1 -140 -36 -10 c-42 -11 -85 -53 -101 -98 -6 -17 -15 -30 -19
-27 -11 7 -89 -115 -106 -166 -8 -22 -23 -57 -33 -77 -31 -61 -36 -93 -8 -48
22 35 25 36 30 17 3 -11 11 -21 19 -21 11 0 10 2 -1 9 -29 18 12 165 58 205
11 11 21 15 21 10 0 -5 18 20 39 56 22 36 53 78 70 94 28 27 32 28 61 16 30
-13 44 -37 14 -26 -14 5 -15 4 -4 -9 7 -9 10 -18 6 -22 -3 -3 -6 -2 -6 4 0 6
-10 13 -23 17 -18 5 -20 8 -7 16 11 7 12 10 2 10 -24 0 -67 -53 -121 -150 -51
-89 -53 -96 -41 -128 6 -18 9 -52 6 -75 l-6 -42 15 33 c8 17 22 32 30 32 18 0
19 -14 3 -32 -7 -7 -14 -21 -14 -31 -2 -17 -1 -17 17 -1 10 9 19 23 19 31 0
32 85 -7 95 -44 6 -25 8 -26 17 -10 7 14 18 17 46 12 43 -6 68 -31 51 -52 -6
-7 -17 -13 -24 -13 -14 0 -25 -22 -25 -48 1 -11 6 -8 16 11 19 34 34 34 112
-3 35 -17 70 -30 77 -30 7 0 27 -13 44 -29 17 -16 31 -24 31 -19 0 12 -47 58
-60 58 -4 0 -6 9 -3 20 4 16 8 18 19 9 11 -9 21 -8 44 1 16 7 30 15 30 19 0 3
9 17 20 31 l20 25 -10 -28 c-21 -60 -8 -49 22 18 17 39 33 72 35 75 7 7 -8
-50 -24 -95 -24 -66 -33 -129 -20 -141 15 -14 124 -54 147 -54 10 0 30 16 45
36 27 36 45 41 26 7 -27 -48 -41 -83 -33 -83 5 0 29 42 53 93 l44 92 2 157 c0
87 -2 158 -5 158 -13 0 -27 -15 -41 -42 -15 -28 -44 -37 -56 -17 -9 14 29 54
67 70 25 10 33 9 56 -8 15 -11 48 -29 74 -40 58 -26 72 -51 63 -110 -10 -66
-49 -208 -79 -286 -20 -52 -23 -67 -12 -67 13 0 24 19 30 54 17 90 25 91 50 2
27 -91 31 -57 5 39 -18 70 -20 91 -11 106 7 10 12 27 12 37 0 10 5 23 10 28 6
6 11 40 11 77 1 50 -4 77 -20 107 -17 33 -21 58 -21 135 0 51 4 105 10 120 6
16 6 24 0 20 -5 -3 -8 56 -5 157 l3 163 44 11 43 12 -36 1 c-73 2 -71 9 -70
-315 0 -254 -2 -287 -14 -270 -21 28 -13 702 10 826 8 47 24 142 35 212 30
197 29 196 55 202 35 9 122 82 148 124 48 76 80 137 64 122 -8 -8 -33 -44 -54
-79 -21 -35 -42 -63 -46 -63 -3 1 -17 -8 -30 -21 -41 -38 -70 -57 -88 -57 -21
0 -49 -58 -54 -113 -8 -80 -12 -96 -29 -121 -15 -23 -15 -25 0 -19 12 5 15 1
11 -13 -8 -28 -19 -83 -22 -113 -16 -140 -29 -181 -55 -174 -28 8 -25 42 8 77
l27 30 -38 -32 c-44 -37 -65 -34 -41 6 l16 27 -25 -27 c-14 -15 -32 -37 -40
-49 -9 -12 -20 -18 -27 -14 -8 5 -5 14 11 31 30 32 21 30 -50 -11 -32 -19 -63
-35 -68 -35 -16 0 -32 -22 -26 -36 4 -10 10 -9 26 6 23 22 37 19 17 -5 -24
-29 4 -15 40 20 32 32 38 34 50 20 17 -20 33 -19 55 5 23 25 35 25 35 1 0 -11
9 -21 21 -24 19 -5 21 -11 16 -41 -3 -20 -2 -36 4 -36 5 0 9 -7 9 -15 0 -18
-20 -20 -20 -2 -1 6 -7 1 -15 -13 -10 -18 -24 -27 -54 -31 -38 -5 -41 -4 -41
18 0 20 39 66 58 69 4 0 18 6 32 12 l25 11 -29 0 c-17 1 -39 -8 -52 -20 l-23
-22 -6 26 c-9 33 -33 42 -57 21 -10 -10 -16 -19 -13 -22 3 -3 -4 -19 -15 -37
-11 -18 -16 -36 -12 -40 4 -5 2 -5 -5 -1 -7 4 -17 -2 -23 -14 -6 -12 -21 -20
-35 -20 -25 0 -25 1 -11 34 12 29 12 34 0 32 -8 -1 -20 -8 -27 -15 -9 -10 -9
-11 5 -6 16 6 16 5 2 -25 -21 -42 -61 -61 -79 -37 -14 20 -81 23 -88 5 -3 -8
-6 -7 -6 4 -1 21 -18 33 -18 13 0 -8 -7 -38 -16 -67 -28 -88 -57 -233 -57
-282 0 -48 -9 -56 -33 -31 -8 7 -26 17 -40 20 -14 4 -28 12 -30 18 -2 7 9 64
25 127 39 150 48 313 24 420 -20 85 -30 108 -63 134 l-25 19 29 22 c15 13 31
21 35 18 12 -7 9 30 -3 47 -9 12 -10 11 -6 -7 5 -24 -10 -41 -51 -58 l-25 -11
40 -46 c36 -41 43 -57 57 -135 26 -144 23 -194 -30 -421 -21 -91 -30 -112 -43
-110 -13 3 -16 21 -19 113 -3 111 5 179 36 315 16 70 17 72 20 36 2 -22 -1
-58 -7 -80 -12 -52 -24 -204 -12 -161 5 17 9 49 10 72 1 54 19 65 24 16 2 -21
4 7 5 62 2 116 -18 228 -48 264 -11 15 -30 41 -43 58 -12 18 -25 33 -28 33 -4
0 -4 -20 -1 -45 5 -49 -11 -100 -35 -109 -11 -5 -13 -2 -8 11 18 45 26 87 20
111 -4 22 1 35 25 62 16 18 30 35 30 37 0 10 -15 -2 -54 -43 -42 -45 -45 -46
-76 -35 -39 13 -156 15 -125 1 11 -5 40 -9 65 -9 70 -2 121 -12 117 -25 -2 -6
-14 -10 -27 -8 -12 1 -28 -2 -34 -7 -7 -6 -17 -6 -26 -1 -8 6 -22 9 -30 9 -10
0 -7 -4 6 -11 16 -7 22 -19 22 -48 0 -22 -6 -44 -14 -51 -9 -7 -14 -8 -14 -1
0 6 4 14 10 17 12 8 12 16 1 34 -7 11 -13 9 -31 -9 l-23 -23 -19 23 c-23 29
-24 60 0 60 9 0 24 5 32 11 12 8 9 9 -11 5 -39 -8 -64 22 -48 57 7 15 16 24
20 21 5 -3 6 3 2 13 -5 15 -2 14 19 -4 21 -20 27 -21 43 -9 22 16 14 32 -20
38 -31 6 -48 -6 -74 -57 -19 -36 -19 -41 -5 -63 10 -15 12 -28 7 -33 -16 -16
-36 36 -29 73 8 41 59 124 77 126 47 5 74 12 77 21 2 5 10 7 18 4 7 -3 11 -9
8 -14 -3 -5 0 -9 6 -9 6 0 10 6 9 13 -3 28 3 32 44 30 38 -2 39 -1 11 6 -17 4
-36 11 -42 15 -6 3 -13 -3 -17 -14 -7 -22 -25 -28 -25 -7 1 18 97 123 106 115
4 -4 2 -14 -4 -21 -7 -8 -8 -18 -4 -22 4 -5 2 -5 -4 -2 -6 4 -20 -3 -30 -14
-18 -20 -18 -20 11 -14 17 4 37 9 46 11 12 3 20 -5 27 -26 10 -27 9 -30 -11
-31 -21 -1 -20 -1 3 -8 18 -5 28 -18 37 -50 12 -42 11 -45 -12 -66 -30 -29
-21 -39 14 -18 14 10 27 17 28 18 8 3 -53 179 -85 247 -52 112 -176 307 -289
456 -111 147 -163 222 -192 280 l-22 43 38 42 c20 23 58 58 83 78 47 37 60 51
140 154 37 48 58 65 119 92 40 19 89 37 107 40 19 3 41 15 49 27 8 11 15 17
15 13 0 -4 6 -3 13 3 6 5 23 19 37 30 30 24 -67 -17 -204 -86 -49 -24 -92 -42
-95 -38 -3 3 1 11 9 17 9 7 22 32 29 57 7 25 17 50 21 55 7 8 30 119 30 146 0
3 29 29 65 57 78 63 86 53 11 -15 -47 -42 -54 -54 -60 -98 -4 -27 -16 -68 -26
-90 -27 -57 -40 -95 -34 -95 3 0 18 9 33 19 14 10 71 37 125 60 54 23 124 56
155 75 31 19 72 41 91 50 19 9 26 14 16 11 -16 -5 -17 -3 -6 10 7 9 19 14 26
11 8 -3 11 0 7 10 -7 20 -16 18 -44 -12 -28 -31 -93 -74 -111 -74 -7 0 6 19
27 42 l40 42 -50 -44 c-27 -25 -49 -49 -47 -53 1 -5 -2 -6 -7 -3 -5 4 -25 -3
-45 -15 -19 -11 -39 -18 -45 -15 -5 3 -14 -1 -21 -9 -7 -8 -38 -28 -69 -44
l-56 -30 34 27 c19 15 62 54 95 86 34 33 49 50 35 38 -14 -12 -29 -19 -33 -15
-4 5 -6 2 -4 -6 3 -13 -74 -81 -93 -81 -16 0 13 37 43 54 15 10 28 23 28 30 0
17 35 48 43 39 4 -3 7 0 7 7 0 7 3 10 6 7 4 -4 22 13 40 36 28 35 33 48 28 74
-4 23 -2 34 8 38 15 6 13 75 -3 75 -13 0 -31 -81 -25 -112 5 -24 -2 -34 -44
-74 -28 -26 -59 -62 -71 -80 -23 -38 -46 -47 -28 -11 6 12 30 46 52 76 22 30
49 82 59 115 19 63 34 91 63 119 12 13 13 21 5 36 -15 28 -14 31 26 47 20 8
38 24 41 34 3 11 18 22 37 26 17 3 61 28 97 54 90 65 150 94 238 114 107 23
139 21 217 -18 38 -19 98 -46 133 -60 36 -14 72 -33 82 -42 9 -8 48 -28 86
-43 l68 -28 6 -49 c3 -27 24 -105 47 -174 22 -69 44 -151 47 -182 4 -32 21
-86 37 -120 22 -45 31 -80 32 -123 4 -98 16 -137 53 -171 18 -17 106 -77 194
-135 141 -91 165 -110 188 -152 20 -37 34 -50 64 -59 26 -8 36 -16 33 -27 -2
-9 -7 -32 -10 -51 -4 -19 -15 -46 -26 -60 -23 -30 -25 -19 -5 35 22 61 19 85
-8 85 -16 0 -23 -6 -24 -20 -4 -49 -143 -182 -256 -245 -86 -48 -100 -38 -17
12 136 83 250 197 250 251 0 14 -11 44 -25 68 -24 40 -105 100 -302 223 -29
18 -53 36 -53 40 0 4 -7 16 -15 27 -13 17 -14 14 -8 -34 5 -43 2 -62 -18 -102
-13 -27 -27 -49 -31 -50 -13 0 -8 33 7 60 16 28 21 150 5 134 -5 -5 -13 -34
-18 -64 -5 -34 -13 -54 -20 -53 -7 2 -12 -2 -12 -7 0 -15 -20 -12 -20 3 -1 15
-50 70 -83 91 -30 20 -40 42 -67 134 -12 40 -30 82 -40 92 -10 10 -16 20 -14
23 3 3 -9 26 -25 53 -17 26 -31 45 -31 42 0 -9 29 -79 60 -143 31 -65 45 -125
30 -125 -6 0 -10 4 -10 9 0 5 -15 19 -34 32 -19 13 -32 27 -30 31 3 5 0 7 -8
6 -7 -2 -12 3 -11 10 2 6 -2 12 -8 12 -6 0 -41 26 -77 58 l-67 57 53 -60 c30
-33 70 -73 90 -88 58 -44 272 -257 272 -271 0 -7 20 -41 45 -76 25 -35 48 -79
51 -97 3 -18 10 -33 14 -33 12 0 19 50 8 56 -5 3 -7 12 -4 20 3 7 -2 20 -10
29 -8 8 -12 19 -9 25 3 5 -1 10 -9 10 -19 0 -21 16 -3 27 7 4 23 31 35 58 12
28 21 42 22 33 0 -10 7 -18 15 -18 14 0 13 3 -1 25 -10 15 -12 25 -5 25 6 0
11 -4 11 -8 0 -5 18 -18 40 -31 22 -12 45 -28 52 -35 7 -6 33 -23 58 -36 25
-14 47 -26 49 -27 3 -2 -10 -19 -29 -38 -18 -19 -34 -46 -35 -60 0 -14 2 -25
5 -25 3 1 20 25 39 54 l33 53 34 -21 c37 -24 40 -17 -39 -78 -19 -15 -49 -52
-66 -83 -34 -60 -80 -109 -199 -215 -90 -80 -109 -92 -91 -58 12 22 11 23 -8
5 -40 -35 -37 -6 4 38 19 21 73 109 73 120 0 3 -6 3 -12 0 -7 -4 -6 -1 2 7 19
17 24 108 9 166 -19 69 -25 57 -21 -39 l5 -91 -67 -133 c-77 -154 -116 -202
-231 -285 -80 -58 -84 -63 -91 -108 -4 -26 -8 -67 -8 -92 -1 -25 -5 -48 -9
-51 -5 -4 -7 -16 -5 -28 2 -17 7 -14 25 20 16 30 18 37 6 28 -15 -13 -15 -9
-9 35 16 103 57 164 146 216 38 22 103 71 143 108 41 37 112 99 158 137 106
89 144 129 177 185 56 98 115 156 145 144 8 -3 19 -16 25 -29 11 -25 4 -37
-53 -81 -20 -15 -20 -15 2 -5 28 14 33 14 33 -3 0 -27 -98 -121 -183 -176 -48
-30 -86 -60 -87 -66 0 -7 -35 -35 -77 -63 -43 -28 -105 -74 -139 -103 -33 -29
-81 -70 -105 -91 -41 -34 -39 -34 26 9 39 26 93 68 120 94 63 60 130 102 286
180 68 34 130 67 139 73 8 7 4 -1 -8 -18 -17 -21 -20 -31 -11 -34 17 -5 66 54
80 96 14 43 34 44 25 1 -8 -41 -50 -95 -92 -120 -19 -11 -34 -22 -34 -24 0 -7
54 8 68 19 7 5 16 7 20 3 8 -9 -35 -46 -53 -46 -8 0 -16 -13 -20 -30 -7 -30
-14 -34 -78 -46 -20 -3 -40 -11 -44 -17 -4 -6 0 -8 10 -4 8 3 32 9 53 13 28 5
35 4 29 -6 -6 -9 -3 -9 14 0 12 6 30 10 39 8 11 -2 -2 -14 -39 -36 -57 -32
-135 -108 -179 -174 -24 -36 -47 -54 -57 -44 -3 2 13 31 35 63 38 56 82 101
147 151 24 19 25 21 5 11 -38 -19 -125 -105 -166 -165 -21 -30 -41 -54 -46
-54 -12 0 -5 11 50 85 25 33 37 53 28 45 -10 -8 -38 -40 -63 -72 -24 -32 -49
-58 -54 -58 -12 0 14 42 63 102 22 26 33 45 26 43 -7 -3 -35 -35 -62 -70 -27
-36 -53 -65 -58 -65 -13 0 9 37 50 82 25 28 30 38 16 30 -22 -11 -55 -47 -84
-90 -13 -18 -21 -21 -52 -16 l-38 7 22 31 21 31 -34 -31 c-90 -83 -103 -96
-89 -89 8 5 2 -7 -15 -26 -16 -18 -22 -27 -12 -20 24 19 33 7 18 -25 -8 -19
-17 -25 -31 -21 -11 3 -18 2 -15 -3 4 -7 -31 -23 -47 -21 -4 0 -20 -21 -37
-47 -33 -52 -101 -132 -101 -119 0 19 31 65 54 81 15 9 26 22 26 28 0 7 -14
-1 -30 -17 -40 -38 -38 -21 5 43 20 28 32 52 28 52 -5 0 -18 -16 -31 -36 -12
-19 -26 -32 -31 -30 -9 6 -35 -141 -49 -276 -8 -79 -4 -89 27 -69 8 5 16 17
17 26 2 13 0 14 -12 4 -8 -6 -16 -10 -18 -8 -2 2 0 44 4 92 6 77 10 92 34 115
l26 27 -6 -50 c-3 -27 -7 -52 -9 -54 -2 -2 5 -12 15 -23 19 -21 17 -41 -8 -70
-10 -12 -11 -18 -4 -18 7 0 12 -5 12 -11 0 -5 -4 -7 -10 -4 -6 3 -7 -1 -4 -10
4 -9 9 -13 12 -11 3 3 10 2 17 -4 6 -5 28 -10 49 -12 21 -1 40 -8 43 -15 5
-12 33 -19 33 -8 0 9 -37 40 -68 57 -32 17 -42 12 -20 -10 9 -9 8 -12 -5 -12
-25 0 -31 25 -17 60 15 35 23 36 73 11 25 -13 37 -15 37 -7 0 7 -16 20 -35 29
-18 9 -42 28 -51 42 -20 30 -31 26 -14 -5 10 -18 9 -21 -2 -18 -17 6 -22 110
-7 155 19 59 149 156 149 112 0 -7 -17 -30 -37 -53 -21 -22 -46 -52 -55 -66
-14 -20 -17 -22 -17 -7 -1 10 20 40 45 67 53 57 50 64 -6 20 -23 -19 -45 -48
-56 -75 -23 -62 -9 -95 57 -125 31 -15 46 -27 40 -33 -5 -5 -7 -25 -4 -43 l6
-34 -46 19 c-26 11 -49 16 -52 11 -3 -5 12 -14 33 -19 26 -7 43 -19 50 -36 18
-38 28 -30 24 20 -5 52 4 95 18 95 6 0 8 -15 4 -38 -5 -35 2 -77 22 -126 6
-16 4 -18 -20 -14 -20 4 -24 2 -17 -5 8 -8 23 -7 55 5 26 10 49 13 57 7 8 -5
22 -3 35 5 11 8 40 20 63 27 54 16 101 69 148 169 20 41 48 91 63 110 15 19
44 62 63 96 88 149 193 220 337 226 l74 3 28 -50 c15 -27 44 -97 63 -155 l35
-105 -1 90 c-1 69 -5 92 -17 101 -17 13 -17 12 -20 189 -3 137 -22 145 -22 8
0 -45 -3 -89 -7 -98 -5 -15 -8 -14 -19 6 -9 17 -11 55 -7 135 l6 111 -42 46
-42 46 38 20 c41 21 133 121 133 143 0 19 -79 95 -113 107 -16 6 -39 11 -53
11 -13 0 -24 3 -24 7 0 3 21 26 48 50 l47 43 5 198 c3 108 3 267 0 352 -3 98
-1 158 5 163 6 4 25 6 44 5 21 -2 36 2 39 10 3 11 -45 13 -257 10 -144 -2
-261 -1 -261 2 0 3 7 13 14 23 12 15 37 17 260 17 157 0 246 4 246 10 0 6 -88
10 -245 10 -238 0 -245 -1 -265 -22 -24 -26 -26 -46 -5 -54 19 -8 19 -19 -1
-38 -8 -9 -13 -16 -10 -16 6 0 -31 -77 -47 -98 -8 -9 -16 -2 -35 30 -13 24
-24 53 -24 66 0 12 -5 22 -11 22 -16 0 9 23 27 26 8 1 12 -4 10 -10 -3 -7 4
-23 14 -37 17 -20 22 -21 36 -10 9 7 16 18 16 24 0 6 -7 2 -15 -9 -15 -19 -15
-19 -30 1 -15 19 -14 20 12 26 15 4 20 7 11 8 -22 1 -23 9 -4 30 13 14 13 19
0 36 -13 18 -30 21 -151 25 l-136 5 -24 44 c-13 24 -23 52 -23 61 0 9 -9 43
-20 75 -11 32 -20 68 -20 80 0 26 -28 47 -88 67 -23 8 -39 17 -35 21 3 4 -3 7
-15 7 -12 0 -22 4 -22 8 0 15 -250 130 -299 138 -14 3 -31 6 -38 9 -6 2 -13 2
-15 0z m-748 -543 c0 -13 -40 -30 -82 -36 -40 -5 -50 8 -26 32 13 13 108 17
108 4z m1628 -14 c3 -17 -9 -18 -141 -18 -115 0 -146 3 -150 14 -3 8 -3 17 1
20 3 4 69 5 146 4 125 -3 141 -5 144 -20z m-1669 -107 c-4 -27 -15 -63 -23
-80 -9 -16 -16 -35 -16 -41 0 -7 -9 -23 -20 -37 -11 -14 -20 -33 -20 -41 0 -9
-17 -40 -37 -70 l-38 -55 -3 82 c-2 47 -7 81 -13 81 -7 0 -9 -33 -7 -91 l3
-92 -39 -38 c-21 -22 -40 -39 -42 -39 -2 0 -4 76 -4 169 0 103 -4 172 -10 176
-7 4 -10 -56 -10 -173 0 -178 0 -179 -25 -202 -14 -13 -25 -28 -25 -33 0 -5
-10 -22 -21 -39 -21 -29 -21 -31 -4 -68 9 -21 30 -57 46 -81 24 -37 29 -54 29
-106 0 -73 17 -85 22 -16 l3 47 70 -98 c118 -164 141 -198 204 -295 l61 -95
-77 -28 c-42 -15 -77 -27 -78 -25 -1 1 -12 28 -26 60 -20 47 -39 71 -104 127
-44 37 -102 88 -128 112 l-48 43 -2 498 -2 497 196 0 196 0 -8 -49z m1584 8
c3 -25 16 -52 31 -68 26 -27 26 -27 6 -46 -10 -11 -46 -68 -78 -128 l-59 -108
-11 39 c-7 22 -12 63 -12 92 0 38 -8 71 -29 114 -16 34 -32 80 -36 104 l-7 42
95 0 94 0 6 -41z m544 -306 c-3 -192 -6 -349 -6 -349 -1 -1 -26 -21 -56 -44
-41 -31 -55 -49 -55 -67 0 -25 1 -25 58 -20 57 5 57 5 104 -41 l47 -45 -60
-68 c-58 -64 -62 -67 -98 -62 -62 8 -60 -12 8 -75 l61 -57 0 -87 c0 -49 -4
-88 -8 -88 -5 0 -41 23 -80 50 -39 27 -74 50 -78 50 -4 0 -23 12 -41 26 -27
21 -33 31 -29 49 6 23 -15 55 -35 55 -5 0 -6 7 0 18 5 9 14 35 21 56 7 22 32
66 56 98 68 93 73 163 14 183 -26 9 -42 24 -61 60 -15 26 -35 52 -45 58 -21
11 -44 37 -44 49 0 5 16 6 37 2 29 -5 35 -4 31 7 -3 8 -13 59 -23 114 l-18
100 -20 -45 c-10 -25 -30 -71 -44 -102 l-26 -58 -29 18 c-53 31 -53 33 1 150
49 105 78 214 53 198 -7 -4 -12 -12 -12 -18 0 -6 -28 -71 -61 -144 l-61 -132
-49 30 c-27 16 -49 31 -49 33 0 2 27 55 61 117 34 62 85 161 115 221 l54 107
186 0 186 0 -5 -347z m-565 22 c-20 -41 -40 -75 -44 -75 -7 0 47 117 64 138
21 25 16 10 -20 -63z m273 -214 c5 -22 4 -31 -3 -27 -6 3 -12 1 -14 -4 -2 -6
-15 -13 -31 -15 l-27 -5 17 42 c22 58 34 73 44 56 4 -7 10 -28 14 -47z m40
-612 c5 -6 4 -14 -4 -21 -11 -10 -14 -10 -18 -1 -3 9 -10 10 -23 3 -10 -5 -25
-7 -34 -4 -13 5 -12 8 2 25 17 20 55 19 77 -2z m-2122 -101 c29 -24 30 -28 16
-40 -9 -7 -19 -28 -21 -45 -4 -32 4 -43 17 -23 3 6 11 10 17 10 7 0 6 -6 -2
-15 -7 -8 -18 -15 -24 -15 -6 0 -33 -11 -61 -23 l-50 -23 57 -60 57 -60 -28
-93 c-15 -50 -31 -92 -35 -92 -4 0 -22 12 -41 28 l-35 28 0 260 c-1 143 -1
264 0 268 0 5 23 -11 51 -35 28 -23 65 -55 82 -70z m2171 6 c39 -26 82 -55 96
-65 14 -10 42 -28 63 -39 46 -25 48 -41 4 -33 -38 6 -143 -18 -203 -47 -67
-33 -124 -89 -190 -190 -34 -52 -74 -108 -88 -125 l-26 -30 16 40 c57 143 153
270 240 317 49 26 154 62 154 52 0 -3 6 -2 13 3 6 4 21 6 32 5 17 -2 18 -1 5
8 -8 6 -36 22 -62 35 -26 14 -63 38 -81 55 -19 16 -43 30 -54 30 -38 0 -159
-96 -208 -165 -50 -70 -81 -89 -44 -27 32 54 106 129 166 168 28 19 54 38 58
44 12 19 39 10 109 -36z m0 -46 c21 -15 32 -28 24 -28 -8 0 -32 16 -54 36 -43
39 -31 36 30 -8z m-32 -13 c26 -24 48 -35 71 -36 28 0 25 -3 -28 -22 -33 -13
-69 -28 -79 -34 -15 -8 -31 -6 -70 9 -70 27 -81 33 -81 46 0 18 66 61 83 55 8
-4 13 -2 10 3 -4 5 8 10 25 11 22 2 40 -6 69 -32z m-1802 -4 c0 -5 -10 -13
-22 -16 -13 -4 -62 -25 -111 -46 -71 -32 -94 -38 -126 -33 -27 4 -52 1 -80
-12 -45 -20 -47 -29 -10 -53 24 -15 24 -15 6 6 -19 21 -18 22 12 37 38 20 72
21 65 2 -7 -19 75 -3 124 24 39 21 137 60 151 60 4 0 8 -7 8 -15 0 -8 -4 -12
-8 -9 -4 2 -10 -4 -13 -14 -5 -13 -15 -17 -43 -15 -43 4 -76 -18 -88 -58 -4
-13 -14 -31 -22 -41 -10 -11 -11 -18 -4 -23 6 -3 19 8 29 26 23 44 67 89 86
89 26 0 18 -17 -13 -30 -18 -7 -34 -24 -42 -43 -15 -39 -51 -71 -60 -55 -5 7
-19 -1 -38 -22 -26 -29 -32 -31 -46 -20 -15 12 -13 16 17 43 l33 30 -38 -23
-38 -22 -20 20 c-19 21 -19 21 24 46 23 14 37 26 30 26 -18 0 -82 -34 -83 -43
0 -5 20 -32 45 -60 43 -49 56 -77 36 -77 -5 0 -15 10 -24 23 -8 12 -44 55 -81
96 -36 40 -66 77 -66 80 0 16 126 58 160 54 25 -3 62 7 130 36 100 42 120 47
120 32z m1663 -81 l55 -21 -62 -62 c-46 -46 -77 -90 -119 -172 -32 -63 -57
-101 -58 -90 -1 11 0 25 1 30 1 6 3 20 5 32 1 13 7 28 12 35 12 16 24 48 18
48 -3 0 -16 -23 -30 -50 -14 -28 -30 -48 -34 -45 -13 7 -7 80 7 98 7 8 18 32
26 53 13 35 15 36 15 12 1 -14 -10 -40 -24 -56 -28 -33 -33 -51 -9 -31 24 20
44 65 44 100 0 23 12 46 46 85 25 30 47 54 49 54 3 0 29 -9 58 -20z m-295 -72
c138 -13 137 -12 85 -90 -28 -41 -21 -40 -148 -12 l-60 13 60 -5 c33 -2 72 -7
88 -10 15 -3 27 -1 27 4 0 6 -30 13 -67 17 -38 4 -89 10 -115 14 -52 9 -58 7
-58 -21 0 -10 -4 -18 -10 -18 -15 0 -12 46 4 59 11 10 44 8 145 -6 72 -10 131
-16 131 -12 0 4 3 15 7 25 6 16 0 17 -63 12 -38 -3 -58 -3 -44 1 18 6 6 9 -45
13 -38 3 -74 1 -79 -3 -18 -16 -27 -9 -16 11 13 24 4 23 158 8z m-67 -124 c83
-19 96 -41 17 -29 -29 5 -65 9 -80 9 -16 1 -28 5 -28 10 0 4 -7 6 -15 2 -15
-5 -20 5 -8 17 10 11 38 8 114 -9z m-1411 -24 c0 -14 -27 -19 -39 -7 -18 18
-13 25 14 19 14 -2 25 -8 25 -12z m1360 -16 c47 -9 89 -21 94 -25 5 -5 14 1
20 13 17 32 44 46 56 28 13 -20 13 -40 0 -40 -5 0 -10 8 -10 17 0 14 -5 12
-27 -8 -23 -20 -37 -24 -78 -23 -27 1 -72 9 -100 18 -27 8 -51 13 -53 11 -3
-3 1 -7 9 -9 87 -31 113 -44 123 -58 5 -9 7 -21 3 -25 -5 -4 -12 -2 -16 5 -6
10 -11 10 -21 -3 -8 -10 -9 -15 -1 -15 6 0 11 -5 11 -11 0 -6 -9 -8 -21 -4
-15 5 -19 4 -15 -4 12 -18 31 -13 61 19 28 29 28 30 10 50 -21 23 -19 24 41 9
43 -11 54 -22 34 -34 -5 -3 -10 -1 -10 6 0 17 -67 -56 -110 -119 -19 -28 -40
-51 -47 -52 -20 0 -43 12 -38 21 3 4 -5 13 -17 20 -21 11 -22 11 -9 -5 13 -15
12 -16 -13 -7 -14 6 -26 8 -26 5 0 -4 -7 -1 -15 6 -11 9 -13 16 -5 24 16 16
12 30 -5 16 -12 -10 -18 -10 -30 0 -8 7 -15 16 -15 21 0 17 38 9 105 -21 l67
-30 26 25 c24 24 24 25 3 25 -12 0 -21 -6 -21 -15 0 -18 5 -19 -60 6 -91 35
-95 37 -74 60 9 10 21 16 27 12 6 -4 3 -10 -9 -14 -18 -7 -18 -8 2 -8 21 -1
38 15 62 57 14 26 11 27 -31 7 l-32 -16 24 21 c13 11 20 20 15 20 -4 0 -3 5 4
12 7 7 12 21 12 33 0 12 3 16 8 9 4 -7 45 -20 92 -30z m162 -36 c27 -22 58
-81 58 -113 -1 -47 -33 -107 -75 -139 -37 -29 -96 -55 -124 -56 -25 0 7 27 39
34 42 8 118 81 131 125 9 30 8 44 -5 76 -9 21 -19 35 -23 32 -7 -8 -32 23 -33
41 0 6 4 12 8 12 5 0 15 -6 24 -12z m-70 -88 c-11 -12 -26 -35 -32 -51 -8 -19
-20 -29 -33 -29 -20 0 -20 0 -1 23 41 50 78 86 82 83 2 -3 -5 -14 -16 -26z
m58 21 c0 -5 -7 -14 -15 -21 -8 -7 -27 -34 -41 -61 -28 -50 -50 -67 -67 -50
-7 7 -16 7 -26 -2 -14 -11 -14 -10 -2 6 8 10 23 16 34 15 15 -2 26 9 44 41 34
64 73 103 73 72z m-1409 -108 c4 -43 6 -79 4 -81 -2 -2 -12 2 -23 9 -23 15
-45 133 -30 163 19 35 41 -6 49 -91z m-311 36 c12 -23 19 -43 16 -46 -4 -4
-46 69 -46 82 0 15 12 1 30 -36z m139 -7 c5 -26 13 -55 17 -66 6 -16 4 -17
-13 -8 -27 15 -47 65 -39 97 10 39 23 30 35 -23z m1555 -16 c-30 -66 -74 -94
-160 -103 -48 -5 -54 -4 -54 13 0 16 6 19 48 16 71 -5 116 17 143 70 44 87 63
91 23 4z m-1451 -27 c16 -4 16 -6 4 -24 -13 -16 -17 -17 -31 -6 -9 7 -16 22
-16 33 0 15 3 18 13 10 6 -5 20 -11 30 -13z m199 -42 c8 -13 1 -46 -12 -61 -5
-4 -8 -2 -7 5 1 40 -4 49 -28 49 -16 0 -25 6 -25 16 0 13 7 15 32 10 18 -3 36
-12 40 -19z m-447 -43 c32 -22 67 -57 86 -86 35 -54 33 -76 -3 -33 -36 44 -92
95 -97 89 -3 -3 15 -22 39 -44 25 -22 41 -39 37 -40 -14 0 -71 31 -94 53 -13
11 -23 17 -23 12 0 -5 -11 2 -25 15 -14 13 -25 31 -25 40 0 42 36 40 105 -6z
m1719 -14 c-42 -39 -114 -67 -137 -54 -9 6 -9 4 0 -8 16 -18 5 -32 -14 -17
-16 14 -17 71 -1 87 19 19 30 14 18 -7 -17 -32 -12 -42 18 -35 54 11 110 35
127 54 10 11 21 20 24 20 3 0 -13 -18 -35 -40z m-713 -59 c-24 -33 -61 -42
-61 -15 0 8 14 36 32 62 l32 47 9 -32 c8 -26 5 -37 -12 -62z m-1146 19 c-8
-12 -44 -19 -50 -9 -3 5 -1 18 5 30 11 20 13 20 31 3 10 -9 16 -20 14 -24z
m1684 24 c2 -2 2 -7 -2 -10 -9 -10 -57 5 -57 17 0 10 48 4 59 -7z m0 -41 c3
-2 0 -7 -5 -12 -11 -11 -54 4 -54 19 0 9 47 4 59 -7z m-559 -49 c0 -3 -11 -49
-24 -102 -13 -53 -29 -122 -36 -153 -10 -53 -13 -57 -43 -62 -18 -2 -33 -4
-34 -3 -1 1 9 39 21 84 13 45 20 82 16 82 -20 0 -62 -67 -73 -116 -10 -49 -15
-57 -46 -70 -19 -8 -35 -13 -37 -11 -2 1 8 41 21 87 30 106 30 109 0 80 -19
-18 -27 -20 -39 -11 -12 10 -17 -1 -30 -63 -14 -61 -21 -76 -39 -81 -62 -18
-60 -18 -52 1 4 11 22 83 40 162 18 79 34 145 36 146 2 2 20 6 40 9 l37 5 14
-50 14 -51 27 45 c17 30 37 50 57 56 34 12 37 5 19 -47 -18 -52 -3 -47 28 7
16 29 37 53 48 55 11 2 23 5 28 6 4 0 7 -2 7 -5z m178 -121 l3 -122 -37 -16
c-48 -20 -53 -19 -60 10 -4 17 -1 32 10 44 14 16 43 98 49 141 1 10 -7 15 -28
15 l-29 0 -29 -121 c-28 -120 -30 -122 -60 -128 -16 -3 -31 -5 -33 -4 -2 3 62
270 71 296 3 9 24 12 72 10 l68 -3 3 -122z m-1155 -39 c-7 -19 -13 -18 -39 7
-12 12 -20 27 -17 35 4 10 11 9 33 -8 16 -11 26 -27 23 -34z m-38 -14 l29 -30
-21 -22 c-19 -18 -24 -19 -38 -8 -25 21 -33 43 -24 68 11 29 20 28 54 -8z
m-27 -83 c7 -8 6 -18 -4 -31 -13 -19 -14 -19 -34 -1 -15 14 -17 21 -9 32 14
16 33 17 47 0z m1197 -59 c-4 -15 -2 -28 3 -28 5 0 9 -24 9 -52 0 -29 3 -68 7
-85 9 -40 -7 -44 -47 -13 -14 11 -27 16 -29 12 -5 -15 -58 -24 -58 -11 0 7
-10 -1 -22 -17 -12 -16 -25 -33 -29 -37 -13 -16 -59 24 -59 51 0 14 -3 23 -6
19 -3 -3 -15 3 -27 14 -18 16 -23 17 -36 5 -14 -11 -21 -11 -49 1 -21 9 -30
18 -26 26 6 9 4 9 -8 -1 -13 -10 -23 -10 -57 4 -47 19 -53 41 -22 87 l18 29 7
-27 c6 -24 11 -27 45 -23 28 2 37 0 34 -9 -3 -7 -1 -13 3 -13 15 0 35 16 33
26 -5 26 2 33 24 25 12 -5 27 -9 32 -10 6 -1 9 -9 8 -17 -1 -12 4 -10 19 5 10
12 23 19 28 16 4 -3 10 1 13 9 4 9 14 12 27 9 12 -3 29 2 42 13 21 19 21 19
14 -11 -5 -16 -9 -37 -11 -45 -2 -8 -11 -35 -19 -59 -19 -53 -20 -50 1 -47 12
2 20 21 30 67 21 104 27 114 74 114 38 1 40 0 34 -27z m-1225 -9 c0 -5 4 -8 9
-5 5 3 14 -1 21 -8 9 -12 8 -20 -5 -40 l-17 -26 -29 23 c-27 21 -36 46 -22 60
10 11 43 8 43 -4z m556 -38 c5 2 27 -5 49 -15 22 -9 52 -20 68 -23 15 -3 30
-9 32 -13 8 -14 -24 -20 -51 -10 -32 13 -44 13 -44 0 0 -5 9 -10 20 -10 25 0
26 -16 3 -29 -10 -6 -14 -11 -9 -11 5 0 18 7 28 17 20 18 37 11 20 -9 -5 -7
-18 -44 -27 -82 -17 -68 -49 -150 -67 -172 -10 -13 -100 6 -151 33 -26 13 -29
19 -24 47 5 32 4 33 -44 45 -48 13 -67 31 -31 31 14 0 14 2 3 9 -11 7 -10 12
8 22 11 8 21 17 21 22 0 4 -4 5 -10 2 -15 -9 -13 -2 17 51 31 59 73 105 85 98
5 -3 2 -15 -8 -25 -20 -22 -13 -25 16 -7 10 7 22 10 25 7 6 -7 -50 -125 -64
-134 -6 -3 -11 -12 -11 -18 1 -7 12 2 25 18 32 38 32 27 0 -35 -14 -28 -22
-50 -17 -50 5 0 7 -13 4 -30 -5 -32 5 -38 97 -63 40 -11 44 -10 62 12 32 39
73 215 45 192 -7 -6 -16 -8 -19 -4 -4 3 -7 -1 -7 -11 0 -10 5 -14 11 -10 17
10 2 -80 -22 -134 -18 -42 -20 -43 -51 -37 -39 9 -78 23 -78 28 0 3 9 40 21
83 11 44 22 90 24 104 1 14 3 28 4 31 0 3 19 14 41 24 43 19 44 30 5 38 -22 4
-29 -2 -47 -37 -12 -22 -22 -52 -23 -66 -3 -45 -37 -170 -46 -170 -14 0 -11
22 14 98 13 39 19 69 15 66 -12 -8 -10 1 17 62 31 70 46 89 55 74 4 -6 11 -10
16 -9z m-585 -32 c28 -20 28 -21 13 -47 l-16 -27 20 24 20 24 47 -44 c40 -38
46 -48 40 -71 -6 -25 -9 -26 -29 -16 -36 19 -146 130 -146 148 0 34 13 37 51
9z m845 -56 c46 -15 84 -31 84 -36 0 -19 -32 -16 -103 11 -42 17 -78 27 -81
24 -6 -5 63 -33 132 -53 33 -10 38 -18 23 -35 -5 -5 -30 -58 -56 -117 -26 -59
-52 -110 -56 -113 -9 -5 -101 21 -131 37 -10 5 -19 5 -23 -1 -3 -5 27 -18 67
-30 40 -11 83 -25 96 -30 30 -13 42 -12 19 1 -16 9 -17 13 -4 32 8 12 33 67
56 122 64 149 104 192 134 144 8 -12 -5 -46 -51 -140 -33 -68 -74 -139 -90
-158 l-29 -34 -89 27 c-137 43 -137 43 -124 66 6 11 17 20 25 20 7 0 17 5 21
12 5 7 2 9 -8 6 -12 -5 -9 14 14 90 35 116 64 182 79 182 6 0 48 -12 95 -27z
m213 -104 c27 -25 22 -35 -10 -19 -19 11 -21 10 -16 -4 4 -10 -1 -20 -14 -27
-19 -10 -20 -9 -9 11 6 12 9 28 6 35 -5 13 2 25 14 25 3 0 16 -9 29 -21z
m-1219 -62 c0 -6 3 -7 6 -4 8 8 64 -31 64 -44 0 -6 -20 4 -44 21 -47 32 -68
54 -42 44 9 -3 16 -11 16 -17z m541 3 c20 0 43 -25 35 -39 -10 -16 -52 8 -66
38 -9 21 -9 24 1 14 7 -7 21 -13 30 -13z m733 5 c20 -9 39 -23 42 -33 3 -9 9
-25 14 -34 5 -9 8 -51 6 -93 -4 -64 -9 -82 -31 -111 -15 -19 -30 -33 -33 -30
-3 3 3 16 14 28 l19 23 -23 -19 c-12 -11 -20 -26 -18 -35 3 -9 -4 -27 -15 -41
l-21 -24 -71 24 c-88 30 -90 37 -46 157 17 48 38 107 46 131 10 26 26 48 42
57 33 18 32 18 75 0z m-356 -223 c5 -16 -28 -15 -58 4 -25 14 -25 14 14 11 22
-1 41 -8 44 -15z"/>
<path d="M2754 2817 c1 -138 4 -173 14 -170 17 7 13 334 -4 340 -8 3 -11 -45
-10 -170z"/>
<path d="M2611 2770 c-7 -22 -9 -45 -6 -51 5 -8 85 -278 85 -286 0 -2 20 -3
45 -3 l45 0 0 78 c0 64 -4 82 -18 95 -28 26 -32 21 -32 -39 0 -37 4 -53 11
-49 7 5 9 -3 7 -21 -4 -36 -39 -41 -44 -6 -2 12 0 22 5 22 4 0 -9 59 -31 132
-21 72 -38 139 -38 150 0 32 -16 19 -29 -22z"/>
<path d="M1107 363 c-11 -10 -8 -43 3 -43 15 0 24 30 13 41 -5 5 -12 6 -16 2z"/>
<path d="M1474 369 c-2 -4 10 -10 28 -14 18 -4 42 -14 53 -23 11 -9 7 -2 -9
14 -28 28 -62 39 -72 23z"/>
<path d="M1525 3613 c-36 -53 -74 -179 -93 -310 -12 -85 -20 -113 -31 -113
-11 0 -9 -6 7 -20 29 -27 28 -33 -10 -83 -18 -23 -33 -43 -34 -45 -3 -5 -98
20 -119 31 -26 14 -45 17 -45 7 0 -4 26 -16 58 -25 31 -9 70 -21 85 -26 24 -7
29 -5 37 14 5 12 20 35 34 51 l24 29 49 -43 c26 -23 47 -46 46 -51 -2 -4 16
-22 39 -40 l41 -33 -19 29 c-10 17 -51 62 -91 101 -85 82 -84 79 -53 251 41
229 108 354 152 283 7 -11 17 -20 23 -20 5 0 41 -16 79 -35 37 -19 76 -35 85
-35 9 0 27 -9 41 -20 14 -11 34 -20 45 -20 19 -1 19 -1 2 -14 -17 -13 -16 -15
15 -22 18 -4 36 -9 41 -10 4 -1 9 -3 12 -4 3 -1 10 -3 17 -4 6 0 15 -14 20
-31 12 -46 11 -218 -3 -263 -9 -33 -9 -47 1 -71 7 -17 17 -31 22 -31 5 0 6 5
3 11 -4 6 -2 70 4 142 7 77 9 157 4 192 -8 58 -10 61 -48 79 -22 10 -65 33
-95 51 -30 18 -73 38 -95 45 -22 7 -75 30 -117 51 -43 22 -84 39 -92 39 -9 0
-27 -17 -41 -37z"/>
<path d="M1410 3619 c-51 -13 -96 -33 -140 -64 -63 -42 -121 -95 -106 -95 12
0 126 80 126 89 0 13 75 50 115 57 21 3 49 10 63 15 13 5 27 7 32 4 5 -3 11
-1 15 5 9 14 -18 11 -105 -11z"/>
<path d="M1217 3468 c-51 -47 -51 -48 8 -98 l30 -25 -26 30 c-22 26 -24 33
-14 52 6 13 15 20 20 15 4 -4 5 0 3 8 -3 8 4 25 15 38 32 35 16 26 -36 -20z"/>
<path d="M1104 3436 c-3 -14 -10 -26 -15 -26 -5 0 -9 -5 -9 -11 0 -5 4 -8 9
-4 5 3 13 0 17 -6 4 -8 3 -9 -4 -5 -7 4 -12 2 -12 -3 0 -6 6 -11 14 -11 7 0
30 -28 50 -62 48 -82 102 -144 102 -118 0 10 -4 16 -8 14 -4 -3 -8 1 -8 9 0 8
-10 25 -22 39 -13 13 -30 37 -38 54 -8 16 -23 41 -33 57 -10 15 -14 27 -8 27
6 0 11 -4 11 -10 0 -5 7 -10 15 -10 8 0 15 -4 15 -8 0 -5 12 -14 27 -21 22
-10 14 1 -32 51 -32 34 -60 65 -62 67 -1 2 -5 -8 -9 -23z"/>
<path d="M1047 3413 c-15 -4 -17 -10 -11 -31 11 -36 11 -91 0 -122 -8 -24 -8
-24 8 -5 8 11 16 28 16 38 0 9 3 17 8 17 15 0 62 -37 55 -43 -3 -4 -1 -7 5 -7
7 0 12 -8 12 -18 0 -22 53 -78 81 -85 15 -4 8 8 -25 43 -25 27 -46 55 -46 63
0 8 -9 22 -20 32 -24 22 -71 111 -63 119 4 3 4 5 2 5 -2 -1 -12 -3 -22 -6z"/>
<path d="M2040 3255 c-1 -33 -5 -87 -9 -120 -10 -73 2 -124 14 -57 4 23 10 42
15 42 15 0 22 -77 11 -117 -15 -52 -14 -119 3 -151 7 -15 16 -52 19 -82 4 -30
9 -66 13 -79 5 -16 3 -22 -3 -18 -11 7 -42 89 -63 167 -24 87 -89 219 -146
294 -32 41 -60 74 -62 71 -5 -4 55 -91 93 -135 31 -36 82 -155 106 -246 20
-80 76 -204 92 -204 4 0 6 -4 3 -8 -2 -4 0 -14 5 -22 6 -11 7 -6 3 15 -4 17
-8 72 -10 124 -2 67 -8 101 -21 120 -19 29 -20 135 -2 158 14 16 3 114 -18
163 -8 19 -20 60 -28 90 l-13 55 -2 -60z"/>
<path d="M220 3170 c-10 -6 53 -10 187 -10 l201 0 20 -27 c12 -17 21 -22 26
-15 4 7 2 12 -4 12 -6 0 -8 6 -4 13 4 6 4 9 0 5 -4 -3 -16 2 -27 13 -17 17
-35 19 -201 19 -101 0 -190 -5 -198 -10z"/>
<path d="M204 3130 c3 -14 8 -46 11 -71 3 -28 14 -54 25 -64 11 -10 20 -13 20
-8 0 6 -7 14 -16 17 -14 5 -16 16 -10 60 5 46 3 56 -15 72 -20 18 -20 18 -15
-6z"/>
<path d="M1074 3127 c-31 -18 -163 -131 -159 -136 4 -4 185 139 185 146 0 5
-3 4 -26 -10z"/>
<path d="M1410 3018 c38 -17 168 -80 236 -116 54 -28 114 -85 114 -110 0 -9
70 -71 121 -107 16 -11 31 -28 35 -37 3 -10 9 -18 14 -18 13 0 136 -128 149
-154 45 -92 54 -126 57 -205 3 -73 0 -93 -21 -140 -14 -31 -27 -70 -29 -87 -1
-17 -6 -36 -10 -43 -4 -6 -4 -11 -1 -11 3 0 24 39 46 88 39 82 41 92 40 177
-2 163 -32 220 -198 375 -68 63 -157 149 -199 192 -41 42 -87 79 -101 83 -14
3 -45 19 -67 34 -46 30 -179 91 -199 90 -6 0 -1 -5 13 -11z"/>
<path d="M2977 3003 c-30 -8 -37 -47 -37 -223 0 -179 6 -212 41 -231 l22 -11
-20 28 c-17 26 -19 50 -22 228 -3 197 -2 199 18 193 14 -3 21 0 21 9 0 8 -1
13 -2 13 -2 -1 -11 -3 -21 -6z"/>
<path d="M2111 2950 c-1 -32 6 -68 15 -85 11 -21 17 -66 20 -145 2 -63 8 -118
13 -123 4 -4 13 16 21 46 9 40 10 66 2 103 -6 27 -8 61 -5 76 5 26 -3 49 -52
153 -14 30 -14 30 -14 -25z"/>
<path d="M1310 2915 c-14 -8 -44 -14 -68 -15 -24 0 -52 -5 -62 -10 -13 -7 -33
-7 -63 2 -42 11 -46 10 -90 -20 -25 -18 -50 -32 -56 -32 -5 0 -30 -17 -54 -39
-25 -21 -57 -41 -73 -45 -15 -4 -70 -30 -122 -59 -77 -42 -111 -69 -177 -139
-45 -49 -85 -88 -89 -88 -22 0 9 37 124 149 72 69 130 130 130 134 0 5 7 15
15 23 8 9 15 12 15 8 0 -4 9 1 20 11 10 9 26 15 35 11 9 -3 14 -2 11 3 -4 5
19 19 49 32 30 12 53 25 50 27 -3 3 -44 -10 -91 -29 -75 -29 -93 -41 -133 -89
-25 -30 -94 -104 -153 -163 -74 -75 -106 -113 -100 -122 11 -21 119 -73 119
-57 0 7 -11 15 -24 18 -12 4 -23 10 -23 14 0 5 -8 10 -18 12 -13 3 3 24 66 90
84 86 192 158 301 200 24 10 56 28 70 41 14 13 58 41 96 62 67 36 72 37 113
26 l44 -12 -6 -42 c-3 -23 -6 -55 -6 -71 1 -28 0 -28 -22 -12 -13 9 -33 23
-45 32 -12 9 -29 14 -37 12 -9 -2 14 -30 65 -77 44 -40 81 -72 83 -70 2 2 -4
55 -11 117 -8 62 -12 116 -9 120 17 16 26 -27 36 -178 6 -91 13 -180 16 -197
4 -21 2 -33 -5 -33 -6 0 -12 5 -12 10 -1 6 -2 14 -3 20 0 5 -17 31 -37 57 -20
26 -42 59 -49 73 -7 14 -15 20 -17 13 -6 -18 33 -88 64 -114 23 -20 26 -28 18
-46 -5 -13 -16 -25 -23 -28 -15 -5 -155 63 -222 108 -25 17 -39 24 -33 15 7
-8 16 -44 19 -79 6 -61 9 -66 56 -111 48 -46 50 -47 74 -32 29 19 32 29 5 14
-25 -13 -70 23 -100 80 -19 37 -30 108 -13 85 8 -12 89 -65 98 -65 4 0 22 -11
41 -26 18 -14 33 -21 33 -17 0 4 15 8 34 8 26 0 32 -3 24 -12 -6 -8 -20 -10
-37 -6 -23 6 -25 5 -12 -10 8 -10 9 -17 3 -17 -6 0 -14 5 -17 10 -3 6 -15 10
-25 10 -10 0 -24 8 -29 18 -6 9 -11 12 -11 5 0 -6 5 -15 10 -18 6 -4 8 -11 4
-16 -3 -6 -20 1 -39 15 -41 31 -55 34 -29 5 30 -33 53 -42 70 -28 13 10 17 10
25 -2 5 -8 9 -10 9 -5 0 4 11 1 25 -8 29 -19 45 -13 89 33 33 35 51 38 76 16
29 -27 130 -57 145 -45 10 8 24 8 49 1 32 -8 40 -6 65 15 16 13 34 24 40 24 6
0 31 19 56 43 l45 44 0 71 c0 41 -4 72 -10 72 -5 0 -10 -25 -10 -56 0 -62 -22
-101 -88 -151 -34 -25 -44 -28 -124 -28 -76 0 -86 2 -85 18 1 9 7 17 14 17 7
0 13 5 13 10 0 6 3 9 8 8 18 -5 123 56 160 94 46 46 59 83 20 54 -53 -37 -233
-144 -237 -140 -5 5 -17 -4 116 82 61 40 115 72 121 72 14 0 36 29 28 37 -3 4
-19 -6 -34 -20 -16 -15 -33 -27 -38 -27 -6 0 -11 21 -12 48 -1 26 -4 65 -7 87
-5 36 -4 38 8 23 8 -10 26 -18 41 -18 14 0 26 -4 26 -10 0 -5 5 -10 11 -10 7
0 31 -12 54 -27 l43 -27 1 -95 1 -96 -48 -41 c-26 -23 -57 -44 -68 -48 -27 -8
-60 -44 -50 -53 4 -5 12 0 17 10 6 9 24 24 42 33 18 9 53 34 78 55 53 44 59
46 59 21 0 -20 -29 -52 -47 -52 -6 0 -16 -13 -22 -30 -5 -16 -7 -30 -2 -30 4
0 20 14 36 30 31 33 45 38 45 17 0 -19 -29 -43 -74 -62 -39 -16 -39 -16 -34 7
3 13 9 31 13 41 12 29 -65 -27 -87 -63 -10 -17 -20 -30 -23 -30 -4 0 -29 10
-56 21 -50 22 -63 38 -31 40 11 0 13 2 4 6 -8 3 -27 -7 -43 -23 -31 -30 -38
-50 -14 -40 21 8 45 -3 45 -20 0 -8 7 -14 16 -14 12 0 14 -5 9 -17 -4 -10 -10
-30 -12 -45 -4 -18 -10 -25 -19 -21 -9 3 -14 22 -14 57 -1 41 -3 47 -11 33 -6
-11 -8 -32 -5 -48 3 -16 2 -29 -3 -29 -5 0 -38 14 -74 30 l-64 31 -8 82 c-5
56 -10 74 -14 57 -4 -14 -3 -52 1 -85 8 -57 7 -60 -19 -82 -37 -29 -43 -29
-43 6 0 16 -7 34 -15 41 -18 15 -18 15 -1 -35 13 -35 12 -42 -1 -58 -26 -28
-5 -33 25 -5 15 14 39 33 54 42 25 17 28 16 97 -18 39 -20 77 -36 84 -36 11 0
16 -23 21 -90 4 -50 9 -97 12 -105 12 -31 -12 -14 -31 22 -17 32 -29 41 -82
57 -67 22 -73 32 -73 117 0 21 -5 41 -11 45 -12 7 -7 -75 7 -131 5 -19 2 -25
-9 -25 -9 0 -30 -12 -47 -27 -25 -21 -31 -32 -28 -55 4 -23 2 -26 -8 -16 -7 7
-21 66 -32 131 -13 76 -26 125 -38 138 -16 18 -16 20 5 38 13 11 20 24 17 30
-4 5 -2 12 3 15 5 4 12 2 16 -4 7 -11 25 -4 25 9 0 4 -12 13 -26 20 -24 10
-31 9 -65 -15 -24 -16 -46 -24 -59 -21 -17 4 -18 2 -9 -14 8 -15 14 -17 29 -9
29 15 40 12 40 -11 0 -14 -5 -19 -14 -16 -7 3 -18 1 -24 -5 -15 -15 -37 4 -50
42 -8 21 -7 30 1 33 7 2 -10 25 -38 51 -48 45 -50 49 -61 124 l-11 77 -1 -60
c-1 -74 17 -162 41 -198 9 -14 17 -32 17 -39 0 -8 20 -36 45 -63 43 -47 45
-48 29 -15 -9 19 -28 43 -41 53 -17 14 -21 23 -14 30 7 7 3 20 -14 43 -26 34
-32 54 -15 54 6 0 10 -5 10 -10 0 -6 10 -24 21 -39 12 -16 19 -33 15 -39 -3
-5 6 -19 19 -32 34 -32 50 -83 33 -109 -7 -12 -19 -19 -28 -16 -21 7 -80 -31
-82 -52 -1 -10 -2 -41 -2 -69 -1 -48 -1 -49 16 -30 11 15 13 23 5 28 -6 4 -8
10 -5 13 4 4 25 -11 47 -33 48 -47 55 -87 19 -103 -22 -9 -22 -9 2 -5 18 4 31
-2 48 -22 22 -25 22 -25 8 -2 -8 14 -20 46 -26 71 -13 53 -64 121 -87 117 -9
-2 -18 3 -20 10 -6 17 32 15 47 -3 9 -11 17 -12 32 -4 29 16 65 -19 50 -48
-11 -20 -3 -75 16 -109 8 -15 9 -9 5 26 -3 25 -11 48 -17 53 -7 5 -5 12 7 21
18 14 18 16 2 40 -10 14 -21 26 -26 26 -5 0 -9 7 -9 15 0 8 9 15 19 15 24 0
31 28 15 55 -7 11 -15 38 -19 60 l-6 40 20 -25 c11 -14 21 -31 21 -39 0 -7 8
-28 19 -45 10 -17 22 -42 25 -56 l7 -25 -21 25 c-19 22 -20 22 -11 3 16 -33
14 -48 -4 -33 -8 7 -3 -8 11 -34 19 -35 22 -45 10 -40 -9 3 -16 10 -16 16 0 5
-4 7 -9 4 -10 -7 6 -107 20 -121 6 -6 7 4 3 25 -4 19 -7 39 -8 44 0 5 5 11 12
13 7 3 12 -4 12 -19 0 -32 11 -68 20 -68 5 0 6 10 2 23 -5 20 -4 21 12 8 9 -8
16 -24 15 -35 -3 -28 21 -107 37 -125 9 -10 4 19 -12 79 -13 52 -32 102 -41
112 -9 10 -11 18 -5 18 19 0 41 -30 51 -68 41 -159 62 -237 66 -241 12 -12 2
51 -26 162 -56 224 -57 216 17 236 57 15 72 7 80 -45 3 -24 10 -47 16 -50 8
-5 4 26 -8 66 -5 13 -3 13 10 0 11 -12 49 -210 67 -347 1 -4 5 3 9 17 8 24 8
24 9 3 1 -13 -11 -47 -26 -77 l-27 -55 -23 107 c-12 59 -34 163 -48 232 -14
68 -30 129 -36 135 -13 12 -14 16 36 -215 45 -210 59 -265 70 -265 4 0 23 23
42 50 19 28 39 52 44 53 21 8 6 -23 -37 -79 l-46 -60 -48 41 c-52 44 -100 96
-100 110 0 4 -18 30 -40 56 -23 27 -46 68 -52 92 -6 23 -13 41 -15 38 -8 -7
29 -116 38 -116 5 0 9 -5 9 -11 0 -6 17 -32 39 -58 21 -25 39 -50 40 -56 3
-18 36 -55 48 -55 7 0 13 -4 13 -8 0 -5 15 -17 33 -27 43 -23 63 -13 117 59
22 29 50 58 62 65 13 7 46 43 73 79 40 52 58 68 86 75 24 6 40 17 48 34 l12
25 -31 -26 c-38 -31 -50 -32 -82 -7 -16 13 -29 17 -39 10 -8 -5 -9 -9 -4 -9 6
0 4 -4 -4 -9 -16 -10 -44 17 -34 32 3 5 -2 16 -11 26 -11 12 -16 39 -17 89 -1
64 1 76 26 108 15 19 30 33 33 30 3 -3 -2 -14 -10 -23 -8 -10 -18 -25 -22 -33
-4 -8 6 0 23 19 35 40 53 34 28 -8 -19 -33 -22 -112 -6 -159 12 -35 62 -66 91
-56 10 3 24 17 32 32 17 32 56 70 56 54 0 -6 7 -9 16 -5 9 3 11 9 6 12 -14 9
-32 48 -32 69 0 23 30 52 53 52 22 0 32 -42 17 -70 -6 -12 -9 -24 -7 -27 3 -2
8 5 12 16 3 12 10 21 15 21 5 0 6 33 4 73 -3 39 -6 90 -7 112 -2 32 -7 42 -29
53 -26 12 -27 15 -14 40 8 18 10 37 5 55 -4 16 -5 36 -2 45 5 14 3 14 -16 -2
-19 -17 -20 -21 -6 -28 19 -11 20 -47 1 -73 -7 -11 -16 -33 -20 -48 -4 -16
-12 -26 -19 -24 -7 2 -10 11 -8 18 2 8 6 22 9 33 4 16 2 17 -17 7 -14 -8 -20
-18 -16 -29 3 -13 -1 -18 -15 -18 -11 0 -22 6 -24 13 -3 7 -1 13 5 13 6 0 8 4
5 9 -3 5 1 14 9 21 19 16 19 21 -2 47 l-17 21 -58 -50 c-51 -44 -58 -55 -58
-86 0 -21 -12 -62 -26 -92 -15 -30 -30 -68 -35 -85 -7 -24 -8 -20 -4 20 2 28
13 72 25 99 13 27 20 61 18 77 -4 25 3 34 69 84 40 30 73 51 73 46 0 -5 9 -11
20 -14 11 -3 18 -1 15 3 -3 5 -1 11 4 15 5 3 14 -2 19 -11 6 -10 12 -12 16 -6
3 5 -1 12 -9 16 -8 3 -15 10 -15 17 0 6 7 9 15 5 8 -3 15 -2 15 3 0 5 -7 14
-15 21 -17 14 -20 40 -5 40 5 0 14 -9 20 -20 15 -28 23 -25 40 13 7 17 16 37
18 42 3 6 -4 0 -15 -12 -24 -28 -31 -28 -50 -5 -9 10 -12 11 -7 2 5 -12 4 -12
-5 -4 -10 9 -10 17 -2 33 10 17 9 20 -4 15 -12 -5 -15 3 -16 37 l-2 44 -7 -35
c-9 -43 -9 -42 -15 43 -3 37 -1 67 4 67 5 0 29 -19 53 -42 104 -100 162 -150
184 -160 13 -6 24 -17 24 -25 0 -7 16 -30 35 -51 53 -59 57 -77 42 -172 -9
-56 -33 -115 -69 -172 -64 -100 -61 -104 6 -11 45 63 86 186 86 258 0 44 -4
55 -31 81 -17 16 -37 43 -44 61 -7 17 -26 38 -42 47 -16 8 -76 60 -133 116
-151 147 -245 211 -363 250 -21 7 -62 34 -90 61 -28 27 -54 49 -57 49 -3 -1
-16 -7 -30 -15z m73 -50 c35 -33 36 -35 17 -47 -11 -7 -34 -32 -51 -55 -35
-45 -52 -47 -48 -5 2 25 -8 58 -32 104 -6 13 -2 19 19 26 44 17 56 14 95 -23z
m-113 -36 c0 -26 -3 -30 -22 -27 -17 2 -24 11 -26 31 -3 23 0 27 22 27 22 0
26 -4 26 -31z m173 -69 c-6 -68 0 -73 48 -39 l29 20 0 -59 0 -59 -75 -29 c-57
-22 -82 -38 -102 -64 l-26 -35 29 27 c16 15 55 36 86 48 32 12 60 26 63 31 4
5 13 9 21 9 26 0 5 -19 -84 -77 -48 -30 -89 -59 -92 -63 -3 -5 -16 0 -28 11
l-24 19 20 28 c17 24 62 138 62 158 0 14 -30 -19 -36 -39 -3 -12 -18 -48 -32
-80 -21 -48 -23 -62 -14 -82 10 -22 9 -25 -8 -25 -11 0 -20 3 -20 8 0 4 -7 70
-15 147 -18 175 -19 162 5 168 18 5 20 0 21 -51 1 -32 0 -68 -1 -82 -2 -24 -1
-24 16 -8 11 9 48 53 84 97 36 44 68 80 72 81 3 0 4 -27 1 -60z m67 13 c0 -20
-34 -12 -38 9 -2 12 2 15 17 11 12 -3 21 -12 21 -20z m79 -509 c2 -2 -8 -9
-22 -15 -21 -9 -30 -9 -42 1 -25 21 -17 29 23 23 20 -3 39 -7 41 -9z m106 -27
c-4 -22 -22 -49 -46 -73 -45 -44 -53 -31 -10 18 15 18 26 39 24 46 -5 13 26
56 34 48 2 -2 1 -20 -2 -39z m-185 -139 c-1 -97 -4 -138 -10 -127 -20 34 -14
269 6 269 2 0 4 -64 4 -142z m367 96 c3 -9 2 -19 -3 -23 -15 -11 -15 -51 1
-57 17 -7 21 -34 5 -34 -20 0 -39 46 -36 85 5 48 4 45 16 45 6 0 13 -7 17 -16z
m-110 -34 c32 -19 32 -19 38 0 4 11 13 20 21 20 28 0 -11 -51 -42 -56 -24 -4
-67 -39 -100 -82 -41 -54 -47 -119 -14 -152 28 -28 48 -25 22 3 -41 44 -19
122 32 115 11 -2 22 -12 25 -23 3 -17 1 -18 -13 -6 -13 11 -19 11 -32 1 -19
-17 -14 -60 8 -74 28 -17 46 11 51 82 4 64 25 101 56 103 10 0 11 3 4 5 -18 8
-51 -13 -58 -37 -4 -11 -12 -18 -18 -16 -22 7 -12 25 27 52 40 27 66 27 66 0
0 -8 5 -15 10 -15 6 0 10 -4 10 -9 0 -6 -12 -9 -27 -8 -37 3 -56 -33 -48 -93
5 -42 2 -49 -29 -83 -37 -41 -63 -46 -96 -19 -46 37 -35 161 17 202 l25 20
-23 9 c-13 5 -27 7 -31 4 -5 -2 -8 -1 -8 4 0 11 72 72 85 73 6 0 24 -9 42 -20z
m-717 -69 c0 -12 -50 -44 -58 -37 -8 9 39 56 49 50 5 -3 9 -9 9 -13z m401
-192 c12 -51 27 -120 33 -151 6 -31 17 -63 24 -70 17 -17 16 -3 -8 112 -25
122 -25 134 5 154 29 19 35 3 9 -25 -14 -16 -14 -26 5 -113 12 -53 21 -108 21
-123 0 -20 3 -24 11 -16 13 13 19 153 7 153 -4 0 -8 -8 -9 -17 0 -10 -7 -1
-15 21 -13 37 -12 56 5 56 15 0 51 -83 51 -117 l0 -35 27 34 c15 18 28 35 29
37 2 1 8 1 15 -1 7 -2 -5 -23 -29 -51 -22 -26 -49 -60 -59 -77 -21 -36 -34
-37 -67 -7 -25 22 -42 80 -81 265 -18 87 -18 89 -5 76 6 -6 20 -53 31 -105z
m284 13 c-11 -12 -38 27 -31 44 6 15 9 14 22 -11 8 -15 12 -30 9 -33z"/>
<path d="M1713 2138 c-23 -11 -31 -28 -13 -28 16 0 60 23 60 32 0 11 -20 9
-47 -4z"/>
<path d="M238 2899 c-16 -9 -18 -29 -17 -192 1 -127 4 -171 10 -147 5 19 8
100 8 180 -1 140 0 145 20 148 20 3 21 0 21 -100 0 -67 4 -108 12 -116 8 -8
11 -43 10 -104 -2 -51 2 -100 8 -108 7 -11 10 -1 11 40 2 103 -3 164 -13 183
-5 11 -9 55 -9 98 1 78 -12 129 -33 129 -6 0 -19 -5 -28 -11z"/>
<path d="M1016 2761 c-4 -6 -5 -11 -1 -11 3 0 1 -9 -5 -21 -10 -17 -14 -18
-28 -7 -13 11 -14 11 -8 0 5 -8 10 -33 12 -55 2 -23 6 -60 9 -81 5 -33 4 -37
-9 -27 -8 6 -17 41 -21 78 -6 60 -9 65 -21 49 -9 -13 -10 -24 -4 -37 14 -25
12 -32 -5 -25 -23 8 -19 1 23 -43 36 -38 212 -142 212 -124 0 4 -35 26 -78 49
-53 28 -78 48 -80 62 -3 19 0 19 55 -10 32 -16 65 -35 73 -41 13 -11 13 -10 1
6 -8 10 -41 32 -73 48 -58 29 -59 30 -73 102 -2 9 2 17 8 17 6 0 19 -8 30 -17
19 -18 19 -17 12 27 -9 55 -19 77 -29 61z"/>
<path d="M1566 2698 c-11 -53 -4 -63 24 -33 16 17 19 24 8 20 -13 -5 -17 0
-20 22 -4 27 -4 27 -12 -9z"/>
<path d="M260 2585 c0 -45 -4 -65 -12 -65 -10 0 -10 -2 -1 -8 6 -4 16 -23 21
-42 9 -29 10 -17 11 73 1 65 -3 107 -9 107 -6 0 -10 -28 -10 -65z"/>
<path d="M1566 2505 c-10 -8 -16 -21 -13 -29 4 -9 2 -18 -3 -21 -6 -3 -15 -15
-21 -26 -10 -19 -9 -20 10 -9 12 6 21 17 21 26 0 8 11 19 25 24 14 5 25 14 25
20 0 6 -4 8 -10 5 -6 -3 -7 1 -4 9 8 20 -5 20 -30 1z"/>
<path d="M255 2327 l-35 -35 0 -111 c0 -122 8 -150 52 -175 42 -25 43 -15 3
24 l-35 34 0 110 0 110 32 33 c17 18 29 36 25 39 -3 4 -22 -9 -42 -29z"/>
<path d="M307 2324 c-13 -27 -15 -40 -7 -49 8 -10 7 -16 -5 -22 -12 -7 -17
-30 -20 -92 l-5 -84 36 -40 c29 -32 35 -35 29 -16 -4 13 -14 31 -21 40 -16 18
-20 150 -5 177 8 16 24 122 17 122 -1 0 -10 -16 -19 -36z"/>
<path d="M1300 2291 c0 -8 79 -55 85 -50 1 2 -17 16 -41 31 -24 15 -44 24 -44
19z"/>
<path d="M1210 2109 c0 -24 23 -21 28 4 2 10 -3 17 -12 17 -10 0 -16 -9 -16
-21z"/>
<path d="M720 2100 c20 -39 139 -208 153 -217 7 -4 6 1 -3 14 -8 11 -44 63
-79 114 -68 100 -91 129 -71 89z"/>
<path d="M1257 2009 c-9 -6 -17 -15 -17 -20 0 -6 4 -7 10 -4 5 3 7 0 5 -8 -3
-7 10 -78 28 -158 19 -79 37 -160 41 -180 4 -21 19 -48 37 -65 l30 -29 -10 27
c-11 28 -48 187 -82 347 -10 52 -20 96 -22 97 -1 1 -10 -2 -20 -7z"/>
<path d="M1837 2006 c-21 -21 -22 -56 -2 -56 9 0 12 6 8 16 -3 9 0 20 7 24 7
4 11 13 8 20 -3 9 -9 8 -21 -4z"/>
<path d="M2977 2003 c-25 -29 -31 -70 -13 -97 9 -15 12 -26 5 -28 -6 -2 -1
-12 10 -22 21 -19 21 -19 21 7 0 15 -9 36 -20 47 -19 19 -27 50 -14 50 4 0 13
-8 20 -17 10 -13 13 -14 14 -4 0 8 -7 19 -16 26 -15 10 -15 13 1 29 10 9 15
19 13 22 -3 2 -12 -4 -21 -13z"/>
<path d="M1582 1943 c13 -92 24 -99 18 -11 -3 39 -10 73 -16 75 -7 3 -8 -16
-2 -64z"/>
<path d="M780 1967 c0 -3 26 -47 58 -98 32 -52 67 -111 77 -131 11 -21 23 -38
28 -38 4 0 5 -4 2 -10 -3 -5 -1 -18 5 -27 11 -17 11 -17 6 0 -10 31 3 18 29
-30 14 -27 23 -37 19 -23 -3 14 -28 60 -55 103 -27 43 -49 81 -49 83 0 6 -74
117 -102 153 -10 13 -18 21 -18 18z"/>
<path d="M970 1956 c0 -8 8 -13 17 -12 10 0 20 -9 24 -24 5 -17 7 -19 8 -7 1
26 -17 57 -34 57 -8 0 -15 -6 -15 -14z"/>
<path d="M2367 1941 c-42 -27 -42 -31 -3 -19 20 6 36 17 36 25 0 16 2 16 -33
-6z"/>
<path d="M263 1911 c-13 -11 -23 -25 -23 -32 0 -7 -3 -9 -6 -6 -8 8 -64 -61
-64 -77 1 -6 29 20 64 58 43 46 68 66 76 61 9 -5 11 -4 6 3 -10 17 -27 14 -53
-7z"/>
<path d="M255 1840 c-32 -33 -56 -62 -53 -65 8 -9 108 85 108 102 0 8 5 11 12
7 7 -4 8 -3 4 4 -4 7 -8 12 -9 12 -2 0 -29 -27 -62 -60z"/>
<path d="M2229 1811 c-55 -22 -139 -78 -139 -93 0 -6 8 -4 18 5 22 20 36 22
25 5 -4 -7 6 -4 22 6 64 41 67 44 53 48 -7 3 12 14 42 26 30 11 48 21 40 21
-8 0 -36 -8 -61 -18z"/>
<path d="M1945 1741 c-16 -10 -39 -29 -50 -42 l-20 -23 30 22 c63 48 80 61 75
62 -3 0 -18 -8 -35 -19z"/>
<path d="M257 1695 c-21 -15 -35 -30 -32 -35 3 -5 1 -11 -5 -15 -17 -11 -11
-34 18 -65 30 -31 78 -54 93 -44 16 10 10 38 -16 68 -16 19 -22 33 -16 40 14
16 18 68 6 72 -6 2 -27 -7 -48 -21z m53 6 c0 -5 -12 -24 -26 -41 l-27 -31 38
-39 c39 -40 43 -60 8 -42 -10 6 -34 26 -52 46 l-35 36 39 40 c39 40 55 49 55
31z"/>
<path d="M2023 1683 l-28 -24 43 21 c45 22 50 27 28 27 -8 0 -27 -11 -43 -24z"/>
<path d="M2833 1633 c37 -39 35 -59 -8 -73 -60 -20 -75 -44 -69 -109 6 -61 11
-96 14 -96 1 0 3 -11 6 -25 2 -14 12 -47 20 -74 13 -37 14 -54 5 -72 -10 -23
-9 -23 29 7 l40 32 -28 17 c-26 16 -30 27 -50 141 -12 68 -18 127 -14 131 11
11 104 38 112 33 4 -2 19 -35 35 -72 39 -95 50 -101 20 -12 -40 115 -85 193
-115 197 l-25 4 28 -29z"/>
<path d="M1290 1501 c19 -17 44 -36 55 -42 31 -17 -24 33 -60 55 -28 17 -28
16 5 -13z"/>
<path d="M1660 1521 c-38 -21 -93 -41 -113 -41 -12 -1 -35 -8 -52 -16 -16 -8
-23 -12 -14 -10 9 2 38 8 65 12 50 7 117 35 129 54 7 12 5 12 -15 1z"/>
<path d="M815 1480 c-4 -6 -1 -9 6 -8 6 2 14 -3 16 -9 3 -8 -4 -13 -17 -13
-12 0 -19 -4 -15 -10 9 -14 32 -2 51 28 16 24 16 26 1 13 -11 -9 -17 -10 -17
-2 0 14 -17 14 -25 1z"/>
<path d="M1250 1485 c0 -17 93 -116 124 -132 l31 -17 -25 -6 c-24 -6 -23 -7 9
-13 49 -10 124 -8 141 4 11 7 2 8 -32 3 -25 -3 -57 -3 -70 2 -23 7 -23 7 7 21
l30 14 -30 -5 c-44 -7 -85 17 -134 79 -42 53 -51 61 -51 50z"/>
<path d="M2678 1457 c-9 -17 -44 -70 -79 -117 -35 -47 -81 -110 -101 -140 -21
-30 -48 -66 -61 -80 -13 -14 -40 -53 -60 -88 -20 -35 -57 -83 -81 -107 l-45
-44 -16 25 c-20 31 -21 30 38 106 116 153 210 283 190 263 -39 -37 -153 -179
-153 -189 0 -7 -17 -33 -38 -57 -22 -24 -44 -54 -51 -67 -9 -17 -18 -21 -34
-17 -15 4 -18 3 -9 -3 11 -7 7 -14 -15 -30 -15 -12 -23 -22 -17 -22 6 0 19 9
29 20 24 27 30 25 55 -10 20 -27 20 -33 8 -53 -29 -45 -29 -63 -1 -31 16 17
66 56 113 87 47 30 123 86 170 123 47 38 97 77 110 87 l25 18 -25 -12 c-14 -6
-39 -22 -57 -35 -45 -34 -49 -30 -15 14 20 25 47 91 85 212 31 96 55 176 53
177 -1 2 -9 -12 -18 -30z m-49 -133 c-12 -27 -41 -98 -66 -159 -24 -60 -57
-123 -71 -139 -23 -24 -133 -101 -139 -98 -2 1 -14 -9 -28 -22 -14 -13 -36
-26 -48 -29 -16 -4 -9 6 25 36 26 23 69 77 97 119 27 42 69 102 93 132 24 30
68 93 98 141 58 92 74 99 39 19z"/>
<path d="M258 1448 c-40 -36 -48 -58 -33 -88 24 -47 131 -131 165 -129 13 0
13 1 0 6 -23 9 -160 133 -160 146 0 6 17 28 37 49 40 41 33 53 -9 16z"/>
<path d="M288 1416 l-27 -34 77 -68 c42 -38 71 -61 63 -51 -7 9 -10 17 -6 17
4 0 -15 23 -44 51 -55 56 -57 60 -40 91 17 33 5 29 -23 -6z"/>
<path d="M1347 1419 c14 -14 41 -25 75 -30 29 -4 65 -11 81 -14 15 -3 38 0 51
7 22 12 16 13 -52 14 -56 1 -91 7 -127 23 l-50 22 22 -22z"/>
<path d="M1490 1430 c-36 -6 -26 -7 52 -8 53 -1 99 1 101 6 6 9 -96 11 -153 2z"/>
<path d="M1056 1361 c14 -28 27 -51 30 -51 7 0 -26 74 -41 89 -7 7 -2 -9 11
-38z"/>
<path d="M1541 1304 c-32 -17 -60 -24 -100 -24 -38 0 -51 -3 -41 -9 8 -6 18
-7 23 -4 5 3 3 -4 -4 -16 -8 -11 -26 -26 -41 -32 -16 -6 -28 -15 -28 -20 0 -7
254 113 269 127 15 14 -42 -2 -78 -22z"/>
<path d="M2952 1261 c-33 -51 -51 -70 -71 -74 -15 -3 -38 -15 -52 -26 l-24
-20 45 11 c59 15 150 106 150 149 0 16 -1 29 -2 29 -2 -1 -23 -32 -46 -69z"/>
<path d="M1249 1234 c-2 -5 -26 -24 -53 -42 -34 -23 -51 -30 -56 -22 -8 13
-20 -22 -19 -55 0 -16 3 -14 11 8 5 15 16 27 23 27 8 0 31 14 51 32 l36 32 44
-46 c24 -25 45 -41 47 -35 2 6 -4 18 -12 26 -9 9 -28 31 -42 50 -15 18 -28 30
-30 25z"/>
<path d="M1225 1160 c-4 -6 -21 -20 -39 -31 -37 -23 -18 -26 25 -3 17 8 33 13
36 10 3 -3 -2 -24 -11 -46 -18 -47 -4 -45 20 2 12 22 19 27 27 19 6 -6 15 -11
19 -11 9 0 -11 21 -49 53 -15 13 -23 15 -28 7z"/>
<path d="M2910 1074 c-61 -29 -71 -34 -213 -106 -113 -57 -177 -81 -177 -68 0
6 -4 10 -9 10 -11 0 -97 -71 -93 -76 7 -12 -4 -29 -60 -86 -62 -63 -116 -104
-124 -95 -11 11 -110 -106 -140 -167 -8 -15 45 43 79 88 16 21 59 57 96 80 38
24 100 79 140 124 62 68 83 84 135 103 63 24 404 194 421 210 14 14 5 11 -55
-17z"/>
<path d="M2959 1053 c-26 -28 -28 -33 -10 -22 22 14 60 59 49 59 -2 0 -20 -17
-39 -37z"/>
<path d="M860 1021 c-5 -11 -10 -30 -9 -43 1 -21 2 -20 9 5 5 16 14 35 21 43
8 9 8 14 1 14 -6 0 -16 -9 -22 -19z"/>
<path d="M1777 1023 c-11 -10 -8 -81 3 -88 6 -4 9 13 7 44 -1 28 -2 51 -3 51
0 0 -4 -3 -7 -7z"/>
<path d="M2850 985 c-30 -24 -90 -65 -134 -89 -57 -32 -108 -73 -171 -136 -49
-49 -98 -90 -108 -90 -10 0 -15 -4 -12 -10 3 -5 2 -10 -2 -10 -5 0 -42 -31
-83 -69 -85 -80 -109 -86 -34 -10 27 28 39 46 27 40 -24 -12 -83 -80 -83 -96
-1 -16 -36 -54 -62 -65 l-23 -11 25 6 c14 2 33 5 43 5 10 0 16 4 13 9 -8 12
127 140 199 188 33 22 86 70 118 107 43 48 85 82 160 126 91 55 194 136 185
146 -2 2 -28 -17 -58 -41z"/>
<path d="M1920 995 c-7 -9 -19 -14 -27 -11 -8 4 -11 1 -8 -5 4 -6 -2 -13 -14
-16 -11 -3 -18 -9 -15 -14 3 -5 -1 -9 -8 -9 -10 0 -10 -2 1 -9 9 -6 12 -21 9
-44 -2 -20 0 -33 4 -31 4 3 8 22 8 42 0 28 8 44 37 74 20 21 34 38 31 38 -3 0
-11 -7 -18 -15z"/>
<path d="M1998 992 c22 -7 21 -8 -13 -35 -22 -18 -38 -42 -45 -68 -17 -61 -6
-71 14 -14 22 66 37 84 83 100 21 8 34 15 28 15 -57 7 -86 7 -67 2z"/>
<path d="M2091 957 c-36 -18 -62 -59 -68 -108 -6 -44 8 -47 21 -4 3 11 4 3 1
-18 -2 -22 0 -35 6 -32 5 4 9 26 9 49 0 49 31 91 75 102 20 5 23 9 13 15 -18
12 -29 11 -57 -4z"/>
<path d="M660 936 c0 -7 35 -53 88 -114 12 -15 4 1 -18 34 -38 58 -70 95 -70
80z"/>
<path d="M2937 788 c-59 -83 -90 -110 -128 -113 -17 -2 -35 -7 -40 -12 -11
-11 69 -1 89 11 20 12 13 -2 -19 -39 -25 -28 -38 -35 -68 -35 -47 0 -111 11
-111 19 1 3 30 26 65 51 36 25 74 57 85 72 18 25 15 24 -31 -10 -29 -20 -73
-55 -99 -78 -35 -30 -69 -48 -136 -68 -49 -16 -98 -29 -110 -31 -11 -1 -29 -7
-40 -13 -42 -25 32 -12 137 23 108 37 117 38 261 19 43 -6 104 -29 113 -43 3
-6 13 -7 21 -4 9 3 27 -6 45 -23 27 -26 29 -26 29 -7 0 22 -24 48 -38 40 -4
-3 -14 -2 -22 3 -12 7 -12 11 1 26 9 11 9 15 2 10 -24 -14 -13 10 22 49 52 56
37 52 -19 -5 -34 -35 -57 -50 -75 -50 -57 0 -52 14 33 103 46 48 80 87 75 87
-4 0 -14 -6 -21 -12 -70 -65 -70 -57 -1 35 23 31 39 57 34 57 -5 0 -29 -28
-54 -62z"/>
<path d="M2358 806 c-22 -7 -48 -25 -63 -46 -35 -48 -31 -52 8 -8 17 21 44 40
60 44 15 3 30 10 33 15 3 5 4 9 2 8 -2 -1 -20 -6 -40 -13z"/>
<path d="M1943 785 c15 -14 37 -25 48 -25 23 0 23 -1 2 -59 -15 -44 -18 -47
-40 -37 -12 6 -23 14 -23 18 0 4 -6 5 -14 2 -7 -3 -16 2 -19 10 -4 9 -12 13
-20 10 -15 -6 -42 20 -34 34 3 4 2 14 -4 22 -7 12 -9 10 -9 -8 0 -12 -7 -34
-17 -48 -24 -38 -26 -124 -2 -163 10 -17 23 -31 29 -31 6 0 1 13 -11 29 -18
24 -20 37 -14 79 9 71 23 79 82 53 109 -48 119 -62 88 -120 -18 -36 -55 -48
-93 -32 l-27 12 23 -19 c33 -26 65 -20 103 18 24 23 33 41 30 58 -1 14 3 29
11 34 9 7 8 8 -6 4 -15 -5 -17 -2 -13 15 4 16 3 19 -6 10 -20 -20 -30 -11 -13
14 9 13 16 31 16 40 0 9 10 20 23 25 17 7 18 9 5 9 -10 1 -18 6 -18 11 0 6 12
8 28 5 22 -5 24 -4 10 5 -10 6 -24 10 -30 9 -32 -4 -56 3 -76 21 -12 11 -25
20 -29 20 -4 0 5 -12 20 -25z"/>
<path d="M816 719 c-62 -56 -157 -199 -194 -293 -18 -43 -32 -81 -32 -84 0
-15 35 45 51 89 39 102 173 284 234 317 18 10 18 11 2 12 -9 0 -37 -18 -61
-41z"/>
<path d="M2550 649 c-30 -15 -51 -28 -47 -29 4 0 26 9 49 21 22 11 51 19 64
16 28 -5 31 -1 7 12 -13 6 -33 1 -73 -20z"/>
<path d="M1840 629 c-9 -34 -8 -47 4 -73 10 -19 16 -24 16 -13 0 21 -1 21 46
1 37 -15 39 -15 56 6 10 12 18 34 18 48 0 23 -1 24 -13 9 -11 -17 -15 -16 -54
3 -23 11 -47 20 -53 20 -7 0 -9 8 -5 20 3 11 4 20 1 20 -3 0 -10 -19 -16 -41z
m45 -35 c6 0 16 -2 23 -2 7 -1 10 -6 7 -12 -3 -6 1 -7 9 -4 11 4 16 0 16 -10
0 -13 -6 -15 -27 -10 -16 4 -33 11 -39 15 -6 5 -14 6 -17 2 -4 -3 -7 4 -7 16
0 15 4 20 13 14 6 -4 17 -8 22 -9z"/>
<path d="M178 605 c-10 -13 -18 -34 -18 -46 0 -22 0 -22 20 -4 16 14 23 16 32
7 21 -21 27 -13 13 16 -17 32 -11 36 44 23 22 -5 41 -5 41 -1 0 14 -16 20 -67
24 -41 4 -50 1 -65 -19z"/>
<path d="M711 478 c-31 -53 -40 -105 -22 -124 5 -5 12 -27 14 -49 3 -22 3 -13
1 20 -2 33 -5 71 -6 85 0 14 11 45 26 69 15 23 25 45 22 48 -2 3 -18 -19 -35
-49z"/>
<path d="M2945 489 c11 -13 26 -28 33 -32 7 -5 10 -12 7 -18 -4 -5 -1 -9 4 -9
23 0 9 29 -26 56 -35 26 -37 26 -18 3z"/>
<path d="M592 487 c-11 -13 -52 -175 -51 -202 0 -18 59 148 59 167 0 10 7 18
15 18 8 0 15 5 15 11 0 5 -4 8 -9 5 -5 -4 -11 -1 -13 5 -2 7 -8 6 -16 -4z"/>
<path d="M2295 476 c-39 -12 -37 -12 46 -12 77 1 92 -2 150 -31 57 -29 61 -30
34 -8 -16 14 -34 25 -40 25 -5 0 -4 4 3 8 7 5 41 3 75 -5 34 -7 93 -16 131
-19 65 -7 72 -10 130 -61 33 -30 81 -84 106 -121 51 -74 73 -90 67 -45 -3 15
-9 27 -15 26 -5 -1 -27 23 -47 55 -61 95 -139 143 -259 161 -44 6 -82 14 -85
17 -3 3 35 4 86 3 57 -3 86 -1 76 5 -14 7 -104 8 -288 2 -16 0 -52 2 -80 6
-30 4 -66 2 -90 -6z"/>
<path d="M1626 455 c3 -8 9 -14 12 -13 4 1 24 -6 44 -16 21 -10 43 -16 50 -13
7 2 -13 16 -46 31 -69 31 -67 30 -60 11z"/>
<path d="M1806 410 c4 -8 23 -37 41 -64 18 -27 40 -74 49 -105 20 -71 57 -166
49 -126 -12 59 -56 195 -66 200 -14 9 -11 25 5 19 7 -3 33 -32 56 -65 24 -32
48 -59 53 -59 5 0 -1 12 -13 28 -11 15 -32 44 -46 64 -14 20 -40 42 -57 48
-31 11 -31 12 -12 26 11 8 37 17 59 21 31 5 36 8 21 13 -12 4 -38 -1 -64 -13
l-44 -19 -19 23 c-11 13 -16 17 -12 9z"/>
<path d="M2076 397 c-20 -18 -20 -18 -1 -11 11 5 37 8 58 8 34 0 44 -7 93 -60
30 -32 65 -79 78 -104 14 -25 68 -88 122 -140 53 -52 92 -86 86 -75 -13 26
-36 50 -101 105 -44 38 -121 144 -121 168 0 3 24 -17 53 -46 29 -29 56 -50 60
-46 3 4 14 3 24 -1 10 -5 27 -10 38 -12 42 -8 167 -137 162 -167 -1 -6 8 -12
21 -14 19 -3 16 5 -29 65 -48 63 -112 122 -133 123 -5 0 -28 16 -51 34 -23 19
-51 34 -61 34 -11 -1 -33 7 -49 19 -17 11 -43 28 -60 38 -20 13 -25 20 -16 23
10 3 4 13 -20 33 -19 15 -31 31 -27 35 10 9 117 -35 155 -65 22 -18 45 -25 76
-26 25 0 43 3 41 7 -3 5 -11 8 -18 8 -17 0 -126 48 -126 55 0 4 5 3 10 0 6 -3
10 -2 10 3 0 11 -78 22 -179 25 -60 2 -78 -1 -95 -16z"/>
<path d="M1992 391 c28 -22 42 -90 53 -250 7 -92 20 -150 31 -138 3 3 -2 51
-11 105 -16 98 -16 101 4 141 12 22 21 45 21 51 0 19 -20 10 -31 -12 -7 -18
-8 -13 -5 23 5 45 4 48 -32 73 -44 30 -66 35 -30 7z"/>
<path d="M2600 376 c19 -21 64 -58 100 -81 36 -24 79 -59 97 -77 39 -41 113
-170 113 -198 0 -13 6 -20 18 -19 10 0 12 3 5 6 -7 2 -13 11 -13 19 0 20 -57
132 -88 172 -14 18 -56 56 -95 85 -38 28 -64 53 -57 55 7 3 17 -2 22 -9 8 -12
9 -11 5 1 -2 8 -25 22 -51 32 -27 9 -58 25 -70 35 -11 10 -5 0 14 -21z"/>
<path d="M2819 332 c6 -11 20 -27 31 -35 11 -8 17 -17 13 -20 -3 -4 -1 -7 5
-7 7 0 12 -6 12 -13 0 -8 27 -42 60 -77 44 -46 60 -58 60 -44 0 11 -10 24 -22
29 -13 6 -43 40 -68 77 -45 67 -117 138 -91 90z"/>
<path d="M2105 330 c5 -8 16 -26 25 -40 9 -14 29 -59 45 -100 52 -143 57 -152
93 -167 19 -8 37 -11 40 -8 3 3 -4 8 -16 12 -12 3 -22 9 -22 14 0 5 -6 9 -14
9 -8 0 -20 15 -26 33 -16 41 -22 82 -7 44 9 -23 27 -38 27 -22 0 12 -40 84
-50 90 -6 4 -22 31 -36 60 -14 29 -35 62 -46 72 -15 12 -19 13 -13 3z"/>
<path d="M2410 305 c0 -8 132 -66 137 -61 4 4 -118 66 -131 66 -3 0 -6 -2 -6
-5z"/>
<path d="M1843 283 c3 -5 8 -68 11 -142 4 -74 8 -137 11 -139 10 -11 17 80 11
157 -7 97 -14 131 -28 131 -5 0 -7 -3 -5 -7z"/>
<path d="M2844 228 c17 -18 44 -49 60 -68 33 -41 24 -21 -13 30 -29 39 -60 70
-72 70 -4 0 7 -15 25 -32z"/>
<path d="M293 233 c0 -10 7 -27 16 -37 22 -26 131 -106 144 -106 16 0 -24 40
-42 41 -10 0 -12 2 -3 6 19 8 14 23 -8 23 -11 0 -40 20 -64 45 -31 33 -43 40
-43 28z"/>
<path d="M2627 225 c10 -7 21 -11 26 -8 4 2 6 0 5 -5 -2 -6 2 -9 7 -9 6 1 9 5
8 10 -2 4 0 7 3 7 9 0 33 -33 33 -45 0 -5 -4 -2 -10 8 -10 17 -29 15 -29 -3 0
-4 21 -31 47 -60 25 -28 53 -66 62 -83 9 -17 25 -32 37 -33 20 -3 19 1 -16 74
-47 96 -102 152 -154 157 -33 3 -35 2 -19 -10z"/>
<path d="M2573 222 c10 -14 77 -53 77 -44 0 5 -19 19 -42 32 -22 12 -38 18
-35 12z"/>
<path d="M1811 183 c-1 -35 -15 -44 -25 -17 -4 9 -9 14 -12 12 -3 -3 5 -43 16
-89 23 -88 37 -120 25 -57 -5 28 -4 38 6 38 8 0 6 5 -5 13 -16 12 -17 18 -7
50 7 20 10 47 8 59 -3 17 -5 14 -6 -9z"/>
<path d="M1085 149 c77 -41 128 -62 121 -51 -7 11 -121 66 -156 76 -14 4 2 -8
35 -25z"/>
<path d="M2100 143 c30 -54 92 -135 107 -141 16 -5 -40 81 -91 139 l-39 44 23
-42z"/>
<path d="M1010 161 c0 -5 21 -20 46 -32 25 -13 63 -38 85 -57 22 -19 39 -28
39 -20 0 7 -33 34 -73 59 -94 60 -97 62 -97 50z"/>
<path d="M1281 116 c-21 -25 26 -64 107 -91 41 -14 78 -22 84 -19 5 3 -33 20
-84 38 -87 30 -93 33 -93 59 1 31 1 31 -14 13z"/>
<path d="M350 78 c0 -20 24 -78 32 -78 5 0 2 15 -5 33 -8 17 -12 38 -10 45 3
6 0 12 -6 12 -6 0 -11 -5 -11 -12z"/>
<path d="M380 64 c0 -3 7 -18 15 -34 16 -31 32 -42 21 -15 -4 12 0 14 22 9 15
-4 25 -5 22 -2 -12 11 -80 47 -80 42z"/>
<path d="M2305 49 c17 -7 41 -21 54 -33 l24 -21 -12 22 c-14 27 -17 29 -61 37
l-35 6 30 -11z"/>
</g>
</svg>
